%TF.GenerationSoftware,KiCad,Pcbnew,10.0.4*%
%TF.CreationDate,2026-09-13T13:17:34-04:00*%
%TF.ProjectId,FM Radio,464d2052-6164-4696-9f2e-6b696361645f,rev?*%
%TF.SameCoordinates,Original*%
%TF.FileFunction,Copper,L2,Bot*%
%TF.FilePolarity,Positive*%
%FSLAX46Y46*%
G04 Gerber Fmt 4.6, Leading zero omitted, Abs format (unit mm)*
G04 Created by KiCad (PCBNEW 10.0.4) date 2026-09-13 13:17:34*
%MOMM*%
%LPD*%
G01*
G04 APERTURE LIST*
G04 Aperture macros list*
%AMRoundRect*
0 Rectangle with rounded corners*
0 $1 Rounding radius*
0 $2 $3 $4 $5 $6 $7 $8 $9 X,Y pos of 4 corners*
0 Add a 4 corners polygon primitive as box body*
4,1,4,$2,$3,$4,$5,$6,$7,$8,$9,$2,$3,0*
0 Add four circle primitives for the rounded corners*
1,1,$1+$1,$2,$3*
1,1,$1+$1,$4,$5*
1,1,$1+$1,$6,$7*
1,1,$1+$1,$8,$9*
0 Add four rect primitives between the rounded corners*
20,1,$1+$1,$2,$3,$4,$5,0*
20,1,$1+$1,$4,$5,$6,$7,0*
20,1,$1+$1,$6,$7,$8,$9,0*
20,1,$1+$1,$8,$9,$2,$3,0*%
G04 Aperture macros list end*
%TA.AperFunction,ComponentPad*%
%ADD10C,1.600000*%
%TD*%
%TA.AperFunction,ComponentPad*%
%ADD11RoundRect,0.250000X-0.550000X-0.550000X0.550000X-0.550000X0.550000X0.550000X-0.550000X0.550000X0*%
%TD*%
%TA.AperFunction,ComponentPad*%
%ADD12O,1.800000X1.200000*%
%TD*%
%TA.AperFunction,ComponentPad*%
%ADD13C,1.200000*%
%TD*%
%TA.AperFunction,ComponentPad*%
%ADD14C,1.524000*%
%TD*%
%TA.AperFunction,ComponentPad*%
%ADD15R,1.700000X1.700000*%
%TD*%
%TA.AperFunction,ComponentPad*%
%ADD16C,1.700000*%
%TD*%
%TA.AperFunction,Conductor*%
%ADD17C,0.200000*%
%TD*%
G04 APERTURE END LIST*
D10*
%TO.P,U3,8,NF1_8*%
%TO.N,Net-(U3-NF1)*%
X161925000Y-62547500D03*
%TO.P,U3,7,IN1_7*%
%TO.N,Net-(U3-IN1)*%
X161925000Y-65087500D03*
%TO.P,U3,6,IN2_6*%
%TO.N,Net-(U3-IN2)*%
X161925000Y-67627500D03*
%TO.P,U3,5,NF2_5*%
%TO.N,Net-(U3-NF2)*%
X161925000Y-70167500D03*
%TO.P,U3,4,GND_4*%
%TO.N,GND*%
X154305000Y-70167500D03*
%TO.P,U3,3,OUT2_3*%
%TO.N,Net-(U3-OUT2)*%
X154305000Y-67627500D03*
%TO.P,U3,2,VCC_2*%
%TO.N,+3V3*%
X154305000Y-65087500D03*
D11*
%TO.P,U3,1,OUT1_1*%
%TO.N,Net-(U3-OUT1)*%
X154305000Y-62547500D03*
%TD*%
D10*
%TO.P,C5,2*%
%TO.N,/L_Amp_Out*%
X153193750Y-56673750D03*
D11*
%TO.P,C5,1*%
%TO.N,Net-(U3-OUT2)*%
X150693750Y-56673750D03*
%TD*%
D10*
%TO.P,C2,2*%
%TO.N,GND*%
X168275000Y-62706250D03*
D11*
%TO.P,C2,1*%
%TO.N,Net-(U3-NF1)*%
X165775000Y-62706250D03*
%TD*%
D10*
%TO.P,C3,2*%
%TO.N,GND*%
X150172500Y-66992500D03*
D11*
%TO.P,C3,1*%
%TO.N,Net-(U3-NF2)*%
X147672500Y-66992500D03*
%TD*%
D10*
%TO.P,C4,2*%
%TO.N,/R_Amp_Out*%
X161925000Y-55086250D03*
D11*
%TO.P,C4,1*%
%TO.N,Net-(U3-OUT1)*%
X159425000Y-55086250D03*
%TD*%
D10*
%TO.P,C1,2*%
%TO.N,GND*%
X168393750Y-73025000D03*
D11*
%TO.P,C1,1*%
%TO.N,+3V3*%
X165893750Y-73025000D03*
%TD*%
D12*
%TO.P,CN1,4,4_4*%
%TO.N,Net-(U2-ANT)*%
X183031250Y-65862500D03*
%TO.P,CN1,3,3_3*%
%TO.N,GND*%
X190031250Y-65862500D03*
%TO.P,CN1,2,2_2*%
%TO.N,unconnected-(CN1-Pad2)*%
X188031250Y-70662500D03*
D13*
%TO.P,CN1,*%
%TO.N,*%
X184031250Y-68262500D03*
X190031250Y-68262500D03*
%TD*%
D14*
%TO.P,U1,1,P26_A0_D0_1*%
%TO.N,unconnected-(U1-P26_A0_D0-Pad1)*%
X122872500Y-64293750D03*
%TO.P,U1,2,P27_A1_D1_2*%
%TO.N,unconnected-(U1-P27_A1_D1-Pad2)*%
X125412500Y-64293750D03*
%TO.P,U1,3,P28_A2_D2_3*%
%TO.N,unconnected-(U1-P28_A2_D2-Pad3)*%
X127952500Y-64293750D03*
%TO.P,U1,4,P29_A3_D3_4*%
%TO.N,unconnected-(U1-P29_A3_D3-Pad4)*%
X130492500Y-64293750D03*
%TO.P,U1,5,P6_SDA_D4_5*%
%TO.N,/SDA*%
X133032500Y-64293750D03*
%TO.P,U1,6,P7_SCL_D5_6*%
%TO.N,/SCL*%
X135572500Y-64293750D03*
%TO.P,U1,7,P0_D6_TX_7*%
%TO.N,unconnected-(U1-P0_D6_TX-Pad7)*%
X138112500Y-64293750D03*
%TO.P,U1,8,P1_D7_RX_8*%
%TO.N,Net-(U1-P1_D7_RX)*%
X138112500Y-49053750D03*
%TO.P,U1,9,P2_D8_SCK_9*%
%TO.N,unconnected-(U1-P2_D8_SCK-Pad9)*%
X135572500Y-49053750D03*
%TO.P,U1,10,P4_D9_MISO_10*%
%TO.N,unconnected-(U1-P4_D9_MISO-Pad10)*%
X133032500Y-49053750D03*
%TO.P,U1,11,P3_D10_MOSI_11*%
%TO.N,unconnected-(U1-P3_D10_MOSI-Pad11)*%
X130492500Y-49053750D03*
%TO.P,U1,12,3V3_12*%
%TO.N,+3V3*%
X127952500Y-49053750D03*
%TO.P,U1,13,GND_13*%
%TO.N,GND*%
X125412500Y-49053750D03*
%TO.P,U1,14,VBUS_14*%
%TO.N,unconnected-(U1-VBUS-Pad14)*%
X122872500Y-49053750D03*
%TD*%
D15*
%TO.P,SW1,1,1_1*%
%TO.N,Net-(U1-P1_D7_RX)*%
X136525000Y-34925000D03*
D16*
%TO.P,SW1,2,2_2*%
%TO.N,GND*%
X133985000Y-34925000D03*
%TD*%
D15*
%TO.P,RV2,1,1_1*%
%TO.N,/L_Out*%
X183356250Y-34925000D03*
D16*
%TO.P,RV2,2,2_2*%
%TO.N,Net-(U3-IN2)*%
X180816250Y-34925000D03*
%TO.P,RV2,3,3_3*%
%TO.N,GND*%
X178276250Y-34925000D03*
%TD*%
D15*
%TO.P,RV1,1,1_1*%
%TO.N,/R_Out*%
X170656250Y-34925000D03*
D16*
%TO.P,RV1,2,2_2*%
%TO.N,Net-(U3-IN1)*%
X168116250Y-34925000D03*
%TO.P,RV1,3,3_3*%
%TO.N,GND*%
X165576250Y-34925000D03*
%TD*%
D10*
%TO.P,R2,1*%
%TO.N,Net-(U3-IN1)*%
X177165000Y-41275000D03*
%TO.P,R2,2*%
%TO.N,GND*%
X184785000Y-41275000D03*
%TD*%
%TO.P,R1,1*%
%TO.N,Net-(U3-IN2)*%
X164623750Y-41275000D03*
%TO.P,R1,2*%
%TO.N,GND*%
X172243750Y-41275000D03*
%TD*%
D15*
%TO.P,J2,1,Pin_1_1*%
%TO.N,/L_Amp_Out*%
X157956250Y-34925000D03*
D16*
%TO.P,J2,2,Pin_2_2*%
%TO.N,GND*%
X155416250Y-34925000D03*
%TD*%
D15*
%TO.P,J1,1,Pin_1_1*%
%TO.N,/R_Amp_Out*%
X147796250Y-34925000D03*
D16*
%TO.P,J1,2,Pin_2_2*%
%TO.N,GND*%
X145256250Y-34925000D03*
%TD*%
%TO.N,Net-(U1-P1_D7_RX)*%
D17*
X137001250Y-49053750D02*
X138112500Y-49053750D01*
%TO.N,+3V3*%
X127000000Y-49212500D02*
X142875000Y-65087500D01*
X127000000Y-49212500D02*
X127793750Y-49212500D01*
X127793750Y-49212500D02*
X127952500Y-49053750D01*
%TO.N,Net-(U3-NF2)*%
X147672500Y-66992500D02*
X154805000Y-74125000D01*
X154805000Y-74125000D02*
X166678494Y-74125000D01*
X164920994Y-70167500D02*
X161925000Y-70167500D01*
X166678494Y-74125000D02*
X166993750Y-73809744D01*
X166993750Y-73809744D02*
X166993750Y-72240256D01*
X166993750Y-72240256D02*
X164920994Y-70167500D01*
%TO.N,+3V3*%
X154305000Y-65087500D02*
X162242500Y-73025000D01*
X162242500Y-73025000D02*
X165893750Y-73025000D01*
X142875000Y-65087500D02*
X154305000Y-65087500D01*
%TO.N,/R_Amp_Out*%
X147796250Y-34925000D02*
X151793750Y-38922500D01*
X151793750Y-38922500D02*
X151793750Y-56829385D01*
X151793750Y-56829385D02*
X152738115Y-57773750D01*
X152738115Y-57773750D02*
X154852756Y-57773750D01*
X154852756Y-57773750D02*
X158651506Y-53975000D01*
X158651506Y-53975000D02*
X160337500Y-53975000D01*
%TO.N,/L_Amp_Out*%
X157956250Y-34925000D02*
X157956250Y-35718750D01*
X157956250Y-35718750D02*
X153193750Y-40481250D01*
X153193750Y-40481250D02*
X153193750Y-56673750D01*
%TO.N,Net-(U3-IN2)*%
X164623750Y-41275000D02*
X160825000Y-45073750D01*
X160825000Y-66527500D02*
X161925000Y-67627500D01*
X160825000Y-45073750D02*
X160825000Y-66527500D01*
X180816250Y-34925000D02*
X179666250Y-33775000D01*
X179666250Y-33775000D02*
X167639904Y-33775000D01*
X167639904Y-33775000D02*
X166966250Y-34448654D01*
X166966250Y-34448654D02*
X166966250Y-38932500D01*
X166966250Y-38932500D02*
X164623750Y-41275000D01*
%TO.N,Net-(U3-IN1)*%
X177165000Y-41275000D02*
X174466250Y-41275000D01*
X174466250Y-41275000D02*
X168116250Y-34925000D01*
X177165000Y-41275000D02*
X177006250Y-41275000D01*
X164306250Y-62706250D02*
X161925000Y-65087500D01*
X177006250Y-41275000D02*
X164306250Y-53975000D01*
X164306250Y-53975000D02*
X164306250Y-62706250D01*
%TO.N,Net-(U1-P1_D7_RX)*%
X136525000Y-48577500D02*
X137001250Y-49053750D01*
X136525000Y-34925000D02*
X136525000Y-48577500D01*
%TD*%
%TA.AperFunction,Conductor*%
%TO.N,GND*%
G36*
X153142437Y-65707685D02*
G01*
X153185883Y-65755705D01*
X153192715Y-65769114D01*
X153313028Y-65934713D01*
X153457786Y-66079471D01*
X153572067Y-66162499D01*
X153623390Y-66199787D01*
X153714840Y-66246383D01*
X153716080Y-66247015D01*
X153766876Y-66294990D01*
X153783671Y-66362811D01*
X153761134Y-66428946D01*
X153716080Y-66467985D01*
X153623386Y-66515215D01*
X153457786Y-66635528D01*
X153313028Y-66780286D01*
X153192715Y-66945886D01*
X153099781Y-67128276D01*
X153036522Y-67322965D01*
X153004500Y-67525148D01*
X153004500Y-67729851D01*
X153036522Y-67932034D01*
X153099781Y-68126723D01*
X153151035Y-68227312D01*
X153179153Y-68282498D01*
X153192715Y-68309113D01*
X153313028Y-68474713D01*
X153457786Y-68619471D01*
X153623385Y-68739784D01*
X153623387Y-68739785D01*
X153623390Y-68739787D01*
X153716080Y-68787015D01*
X153716630Y-68787295D01*
X153767426Y-68835270D01*
X153784221Y-68903091D01*
X153761684Y-68969225D01*
X153716630Y-69008265D01*
X153623644Y-69055643D01*
X153579077Y-69088023D01*
X153579077Y-69088024D01*
X154258554Y-69767500D01*
X154252339Y-69767500D01*
X154150606Y-69794759D01*
X154059394Y-69847420D01*
X153984920Y-69921894D01*
X153932259Y-70013106D01*
X153905000Y-70114839D01*
X153905000Y-70121053D01*
X153225524Y-69441577D01*
X153225523Y-69441577D01*
X153193143Y-69486144D01*
X153100244Y-69668468D01*
X153037009Y-69863082D01*
X153005000Y-70065182D01*
X153005000Y-70269817D01*
X153037009Y-70471917D01*
X153100244Y-70666531D01*
X153193141Y-70848850D01*
X153193147Y-70848859D01*
X153225523Y-70893421D01*
X153225524Y-70893422D01*
X153905000Y-70213946D01*
X153905000Y-70220161D01*
X153932259Y-70321894D01*
X153984920Y-70413106D01*
X154059394Y-70487580D01*
X154150606Y-70540241D01*
X154252339Y-70567500D01*
X154258553Y-70567500D01*
X153579076Y-71246974D01*
X153623650Y-71279359D01*
X153805968Y-71372255D01*
X154000582Y-71435490D01*
X154202683Y-71467500D01*
X154407317Y-71467500D01*
X154609417Y-71435490D01*
X154804031Y-71372255D01*
X154986349Y-71279359D01*
X155030921Y-71246974D01*
X154351447Y-70567500D01*
X154357661Y-70567500D01*
X154459394Y-70540241D01*
X154550606Y-70487580D01*
X154625080Y-70413106D01*
X154677741Y-70321894D01*
X154705000Y-70220161D01*
X154705000Y-70213948D01*
X155384474Y-70893422D01*
X155384474Y-70893421D01*
X155416859Y-70848849D01*
X155509755Y-70666531D01*
X155572990Y-70471917D01*
X155605000Y-70269817D01*
X155605000Y-70065182D01*
X155572990Y-69863082D01*
X155509755Y-69668468D01*
X155416859Y-69486150D01*
X155384474Y-69441577D01*
X155384474Y-69441576D01*
X154705000Y-70121051D01*
X154705000Y-70114839D01*
X154677741Y-70013106D01*
X154625080Y-69921894D01*
X154550606Y-69847420D01*
X154459394Y-69794759D01*
X154357661Y-69767500D01*
X154351446Y-69767500D01*
X155030922Y-69088024D01*
X155030921Y-69088023D01*
X154986359Y-69055647D01*
X154986350Y-69055641D01*
X154893369Y-69008265D01*
X154842573Y-68960290D01*
X154825778Y-68892469D01*
X154848315Y-68826335D01*
X154893370Y-68787295D01*
X154893920Y-68787015D01*
X154986610Y-68739787D01*
X155036144Y-68703798D01*
X155152213Y-68619471D01*
X155152215Y-68619468D01*
X155152219Y-68619466D01*
X155296966Y-68474719D01*
X155296968Y-68474715D01*
X155296971Y-68474713D01*
X155370748Y-68373166D01*
X155417287Y-68309110D01*
X155510220Y-68126719D01*
X155573477Y-67932034D01*
X155605500Y-67729852D01*
X155605500Y-67536597D01*
X155625185Y-67469558D01*
X155677989Y-67423803D01*
X155747147Y-67413859D01*
X155810703Y-67442884D01*
X155817181Y-67448916D01*
X161681084Y-73312819D01*
X161714569Y-73374142D01*
X161709585Y-73443834D01*
X161667713Y-73499767D01*
X161602249Y-73524184D01*
X161593403Y-73524500D01*
X155105097Y-73524500D01*
X155038058Y-73504815D01*
X155017416Y-73488181D01*
X150033416Y-68504181D01*
X149999931Y-68442858D01*
X150004915Y-68373166D01*
X150046787Y-68317233D01*
X150112251Y-68292816D01*
X150121097Y-68292500D01*
X150274817Y-68292500D01*
X150476917Y-68260490D01*
X150671531Y-68197255D01*
X150853849Y-68104359D01*
X150898421Y-68071974D01*
X150218946Y-67392500D01*
X150225161Y-67392500D01*
X150326894Y-67365241D01*
X150418106Y-67312580D01*
X150492580Y-67238106D01*
X150545241Y-67146894D01*
X150572500Y-67045161D01*
X150572500Y-67038947D01*
X151251974Y-67718421D01*
X151284359Y-67673849D01*
X151377255Y-67491531D01*
X151440490Y-67296917D01*
X151472500Y-67094817D01*
X151472500Y-66890182D01*
X151440490Y-66688082D01*
X151377255Y-66493468D01*
X151284359Y-66311150D01*
X151251974Y-66266577D01*
X151251974Y-66266576D01*
X150572500Y-66946051D01*
X150572500Y-66939839D01*
X150545241Y-66838106D01*
X150492580Y-66746894D01*
X150418106Y-66672420D01*
X150326894Y-66619759D01*
X150225161Y-66592500D01*
X150218946Y-66592500D01*
X150898422Y-65913024D01*
X150897451Y-65912319D01*
X150854785Y-65856989D01*
X150848806Y-65787376D01*
X150881411Y-65725580D01*
X150942249Y-65691223D01*
X150970336Y-65688000D01*
X153075398Y-65688000D01*
X153142437Y-65707685D01*
G37*
%TD.AperFunction*%
%TA.AperFunction,Conductor*%
G36*
X149441702Y-65707685D02*
G01*
X149487457Y-65760489D01*
X149497401Y-65829647D01*
X149468376Y-65893203D01*
X149447547Y-65912319D01*
X149446577Y-65913023D01*
X149446577Y-65913024D01*
X150126054Y-66592500D01*
X150119839Y-66592500D01*
X150018106Y-66619759D01*
X149926894Y-66672420D01*
X149852420Y-66746894D01*
X149799759Y-66838106D01*
X149772500Y-66939839D01*
X149772500Y-66946053D01*
X149093024Y-66266577D01*
X149055219Y-66269553D01*
X148986841Y-66255189D01*
X148937084Y-66206138D01*
X148927785Y-66184944D01*
X148907314Y-66123166D01*
X148815212Y-65973844D01*
X148741049Y-65899681D01*
X148707564Y-65838358D01*
X148712548Y-65768666D01*
X148754420Y-65712733D01*
X148819884Y-65688316D01*
X148828730Y-65688000D01*
X149374663Y-65688000D01*
X149441702Y-65707685D01*
G37*
%TD.AperFunction*%
%TA.AperFunction,Conductor*%
G36*
X167704514Y-36214947D02*
G01*
X167708397Y-36214389D01*
X167729063Y-36219194D01*
X167800007Y-36242246D01*
X168009963Y-36275500D01*
X168009964Y-36275500D01*
X168222536Y-36275500D01*
X168222537Y-36275500D01*
X168432493Y-36242246D01*
X168474773Y-36228507D01*
X168544612Y-36226511D01*
X168600772Y-36258757D01*
X172120924Y-39778909D01*
X172154409Y-39840232D01*
X172149425Y-39909924D01*
X172107553Y-39965857D01*
X172052642Y-39989063D01*
X171939331Y-40007010D01*
X171744718Y-40070244D01*
X171562394Y-40163143D01*
X171517827Y-40195523D01*
X171517827Y-40195524D01*
X172197304Y-40875000D01*
X172191089Y-40875000D01*
X172089356Y-40902259D01*
X171998144Y-40954920D01*
X171923670Y-41029394D01*
X171871009Y-41120606D01*
X171843750Y-41222339D01*
X171843750Y-41228553D01*
X171164274Y-40549077D01*
X171164273Y-40549077D01*
X171131893Y-40593644D01*
X171038994Y-40775968D01*
X170975759Y-40970582D01*
X170943750Y-41172682D01*
X170943750Y-41377317D01*
X170975759Y-41579417D01*
X171038994Y-41774031D01*
X171131891Y-41956350D01*
X171131897Y-41956359D01*
X171164273Y-42000921D01*
X171164274Y-42000922D01*
X171843750Y-41321446D01*
X171843750Y-41327661D01*
X171871009Y-41429394D01*
X171923670Y-41520606D01*
X171998144Y-41595080D01*
X172089356Y-41647741D01*
X172191089Y-41675000D01*
X172197303Y-41675000D01*
X171517826Y-42354474D01*
X171562400Y-42386859D01*
X171744718Y-42479755D01*
X171939332Y-42542990D01*
X172141433Y-42575000D01*
X172346067Y-42575000D01*
X172548167Y-42542990D01*
X172742781Y-42479755D01*
X172925099Y-42386859D01*
X172969671Y-42354474D01*
X172290197Y-41675000D01*
X172296411Y-41675000D01*
X172398144Y-41647741D01*
X172489356Y-41595080D01*
X172563830Y-41520606D01*
X172616491Y-41429394D01*
X172643750Y-41327661D01*
X172643750Y-41321446D01*
X173323224Y-42000921D01*
X173355609Y-41956349D01*
X173448505Y-41774031D01*
X173511740Y-41579417D01*
X173511740Y-41579416D01*
X173529686Y-41466109D01*
X173559615Y-41402974D01*
X173618926Y-41366042D01*
X173688789Y-41367040D01*
X173739840Y-41397825D01*
X173981389Y-41639374D01*
X173981399Y-41639385D01*
X173985729Y-41643715D01*
X173985730Y-41643716D01*
X174097534Y-41755520D01*
X174184345Y-41805639D01*
X174184347Y-41805641D01*
X174222401Y-41827611D01*
X174234465Y-41834577D01*
X174387193Y-41875500D01*
X174545307Y-41875500D01*
X175257153Y-41875500D01*
X175324192Y-41895185D01*
X175369947Y-41947989D01*
X175379891Y-42017147D01*
X175350866Y-42080703D01*
X175344834Y-42087180D01*
X169640764Y-47791250D01*
X163937536Y-53494478D01*
X163825731Y-53606282D01*
X163825729Y-53606285D01*
X163775611Y-53693094D01*
X163775609Y-53693096D01*
X163746675Y-53743209D01*
X163746674Y-53743210D01*
X163746673Y-53743215D01*
X163705749Y-53895943D01*
X163705749Y-53895945D01*
X163705749Y-54064046D01*
X163705750Y-54064059D01*
X163705750Y-62406152D01*
X163686065Y-62473191D01*
X163669431Y-62493833D01*
X163437181Y-62726083D01*
X163375858Y-62759568D01*
X163306166Y-62754584D01*
X163250233Y-62712712D01*
X163225816Y-62647248D01*
X163225500Y-62638402D01*
X163225500Y-62445148D01*
X163193477Y-62242965D01*
X163130218Y-62048276D01*
X163078865Y-61947491D01*
X163037287Y-61865890D01*
X163016236Y-61836916D01*
X162916971Y-61700286D01*
X162772213Y-61555528D01*
X162606613Y-61435215D01*
X162606612Y-61435214D01*
X162606610Y-61435213D01*
X162546898Y-61404788D01*
X162424223Y-61342281D01*
X162229534Y-61279022D01*
X162054995Y-61251378D01*
X162027352Y-61247000D01*
X161822648Y-61247000D01*
X161768704Y-61255544D01*
X161620464Y-61279023D01*
X161620457Y-61279024D01*
X161587817Y-61289630D01*
X161517976Y-61291625D01*
X161458143Y-61255544D01*
X161427316Y-61192843D01*
X161425500Y-61171699D01*
X161425500Y-56462050D01*
X161445185Y-56395011D01*
X161497989Y-56349256D01*
X161567147Y-56339312D01*
X161587820Y-56344120D01*
X161620458Y-56354725D01*
X161620461Y-56354725D01*
X161620466Y-56354727D01*
X161822648Y-56386750D01*
X161822649Y-56386750D01*
X162027351Y-56386750D01*
X162027352Y-56386750D01*
X162229534Y-56354727D01*
X162424219Y-56291470D01*
X162606610Y-56198537D01*
X162735482Y-56104907D01*
X162772213Y-56078221D01*
X162772215Y-56078218D01*
X162772219Y-56078216D01*
X162916966Y-55933469D01*
X162916968Y-55933465D01*
X162916971Y-55933463D01*
X162969732Y-55860840D01*
X163037287Y-55767860D01*
X163130220Y-55585469D01*
X163193477Y-55390784D01*
X163225500Y-55188602D01*
X163225500Y-54983898D01*
X163193477Y-54781716D01*
X163130220Y-54587031D01*
X163130218Y-54587028D01*
X163130218Y-54587026D01*
X163096503Y-54520857D01*
X163037287Y-54404640D01*
X163029556Y-54393999D01*
X162916971Y-54239036D01*
X162772213Y-54094278D01*
X162606613Y-53973965D01*
X162606612Y-53973964D01*
X162606610Y-53973963D01*
X162549653Y-53944941D01*
X162424223Y-53881031D01*
X162229534Y-53817772D01*
X162054995Y-53790128D01*
X162027352Y-53785750D01*
X161822648Y-53785750D01*
X161768704Y-53794294D01*
X161620464Y-53817773D01*
X161620457Y-53817774D01*
X161587817Y-53828380D01*
X161517976Y-53830375D01*
X161458143Y-53794294D01*
X161427316Y-53731593D01*
X161425500Y-53710449D01*
X161425500Y-45373847D01*
X161445185Y-45306808D01*
X161461819Y-45286166D01*
X162154757Y-44593228D01*
X164178909Y-42569075D01*
X164240230Y-42535592D01*
X164304904Y-42538826D01*
X164319216Y-42543477D01*
X164521398Y-42575500D01*
X164521399Y-42575500D01*
X164726101Y-42575500D01*
X164726102Y-42575500D01*
X164928284Y-42543477D01*
X165122969Y-42480220D01*
X165305360Y-42387287D01*
X165398340Y-42319732D01*
X165470963Y-42266971D01*
X165470965Y-42266968D01*
X165470969Y-42266966D01*
X165615716Y-42122219D01*
X165615718Y-42122215D01*
X165615721Y-42122213D01*
X165668482Y-42049590D01*
X165736037Y-41956610D01*
X165828970Y-41774219D01*
X165892227Y-41579534D01*
X165924250Y-41377352D01*
X165924250Y-41172648D01*
X165892227Y-40970466D01*
X165887575Y-40956151D01*
X165885582Y-40886312D01*
X165917825Y-40830158D01*
X167334963Y-39413021D01*
X167334966Y-39413020D01*
X167446770Y-39301216D01*
X167496889Y-39214404D01*
X167525827Y-39164285D01*
X167566750Y-39011558D01*
X167566750Y-38853443D01*
X167566750Y-36337127D01*
X167574675Y-36310136D01*
X167579473Y-36282415D01*
X167584387Y-36277060D01*
X167586435Y-36270088D01*
X167607692Y-36251668D01*
X167626717Y-36230940D01*
X167633746Y-36229092D01*
X167639239Y-36224333D01*
X167667085Y-36220329D01*
X167694291Y-36213178D01*
X167704514Y-36214947D01*
G37*
%TD.AperFunction*%
%TA.AperFunction,Conductor*%
G36*
X195063172Y-32251280D02*
G01*
X195080128Y-32253190D01*
X195153518Y-32261458D01*
X195180583Y-32267636D01*
X195259789Y-32295351D01*
X195284799Y-32307395D01*
X195355856Y-32352043D01*
X195377563Y-32369355D01*
X195436894Y-32428686D01*
X195454207Y-32450395D01*
X195498852Y-32521447D01*
X195510899Y-32546464D01*
X195538612Y-32625662D01*
X195544791Y-32652734D01*
X195554970Y-32743076D01*
X195555750Y-32756959D01*
X195555750Y-83130515D01*
X195554970Y-83144403D01*
X195544787Y-83234750D01*
X195538608Y-83261819D01*
X195510890Y-83341027D01*
X195498843Y-83366042D01*
X195454199Y-83437092D01*
X195436886Y-83458801D01*
X195377551Y-83518136D01*
X195355842Y-83535449D01*
X195284792Y-83580093D01*
X195259777Y-83592140D01*
X195180569Y-83619858D01*
X195153500Y-83626037D01*
X195075641Y-83634812D01*
X195063151Y-83636220D01*
X195049266Y-83637000D01*
X119342908Y-83637000D01*
X119334621Y-83636999D01*
X119334600Y-83636994D01*
X119279123Y-83636999D01*
X119275657Y-83636999D01*
X119275653Y-83636998D01*
X119261783Y-83636220D01*
X119171452Y-83626048D01*
X119144380Y-83619871D01*
X119065183Y-83592164D01*
X119040161Y-83580115D01*
X118969118Y-83535478D01*
X118947407Y-83518164D01*
X118888085Y-83458842D01*
X118870771Y-83437131D01*
X118826134Y-83366088D01*
X118814085Y-83341066D01*
X118814071Y-83341027D01*
X118786378Y-83261869D01*
X118780201Y-83234797D01*
X118780196Y-83234750D01*
X118770028Y-83144454D01*
X118769250Y-83130601D01*
X118769256Y-83071650D01*
X118769250Y-83071627D01*
X118769250Y-79249038D01*
X121430750Y-79249038D01*
X121430750Y-79500961D01*
X121470160Y-79749785D01*
X121548010Y-79989383D01*
X121662382Y-80213848D01*
X121810451Y-80417649D01*
X121810455Y-80417654D01*
X121988595Y-80595794D01*
X121988600Y-80595798D01*
X122166367Y-80724952D01*
X122192405Y-80743870D01*
X122335434Y-80816747D01*
X122416866Y-80858239D01*
X122416868Y-80858239D01*
X122416871Y-80858241D01*
X122656465Y-80936090D01*
X122905288Y-80975500D01*
X122905289Y-80975500D01*
X123157211Y-80975500D01*
X123157212Y-80975500D01*
X123406035Y-80936090D01*
X123645629Y-80858241D01*
X123870095Y-80743870D01*
X124073906Y-80595793D01*
X124252043Y-80417656D01*
X124400120Y-80213845D01*
X124514491Y-79989379D01*
X124592340Y-79749785D01*
X124631750Y-79500962D01*
X124631750Y-79249038D01*
X189693250Y-79249038D01*
X189693250Y-79500961D01*
X189732660Y-79749785D01*
X189810510Y-79989383D01*
X189924882Y-80213848D01*
X190072951Y-80417649D01*
X190072955Y-80417654D01*
X190251095Y-80595794D01*
X190251100Y-80595798D01*
X190428867Y-80724952D01*
X190454905Y-80743870D01*
X190597934Y-80816747D01*
X190679366Y-80858239D01*
X190679368Y-80858239D01*
X190679371Y-80858241D01*
X190918965Y-80936090D01*
X191167788Y-80975500D01*
X191167789Y-80975500D01*
X191419711Y-80975500D01*
X191419712Y-80975500D01*
X191668535Y-80936090D01*
X191908129Y-80858241D01*
X192132595Y-80743870D01*
X192336406Y-80595793D01*
X192514543Y-80417656D01*
X192662620Y-80213845D01*
X192776991Y-79989379D01*
X192854840Y-79749785D01*
X192894250Y-79500962D01*
X192894250Y-79249038D01*
X192854840Y-79000215D01*
X192776991Y-78760621D01*
X192776989Y-78760618D01*
X192776989Y-78760616D01*
X192735497Y-78679184D01*
X192662620Y-78536155D01*
X192643702Y-78510117D01*
X192514548Y-78332350D01*
X192514544Y-78332345D01*
X192336404Y-78154205D01*
X192336399Y-78154201D01*
X192132598Y-78006132D01*
X192132597Y-78006131D01*
X192132595Y-78006130D01*
X192062497Y-77970413D01*
X191908133Y-77891760D01*
X191668535Y-77813910D01*
X191419712Y-77774500D01*
X191167788Y-77774500D01*
X191043376Y-77794205D01*
X190918964Y-77813910D01*
X190679366Y-77891760D01*
X190454901Y-78006132D01*
X190251100Y-78154201D01*
X190251095Y-78154205D01*
X190072955Y-78332345D01*
X190072951Y-78332350D01*
X189924882Y-78536151D01*
X189810510Y-78760616D01*
X189732660Y-79000214D01*
X189693250Y-79249038D01*
X124631750Y-79249038D01*
X124592340Y-79000215D01*
X124514491Y-78760621D01*
X124514489Y-78760618D01*
X124514489Y-78760616D01*
X124472997Y-78679184D01*
X124400120Y-78536155D01*
X124381202Y-78510117D01*
X124252048Y-78332350D01*
X124252044Y-78332345D01*
X124073904Y-78154205D01*
X124073899Y-78154201D01*
X123870098Y-78006132D01*
X123870097Y-78006131D01*
X123870095Y-78006130D01*
X123799997Y-77970413D01*
X123645633Y-77891760D01*
X123406035Y-77813910D01*
X123157212Y-77774500D01*
X122905288Y-77774500D01*
X122780876Y-77794205D01*
X122656464Y-77813910D01*
X122416866Y-77891760D01*
X122192401Y-78006132D01*
X121988600Y-78154201D01*
X121988595Y-78154205D01*
X121810455Y-78332345D01*
X121810451Y-78332350D01*
X121662382Y-78536151D01*
X121548010Y-78760616D01*
X121470160Y-79000214D01*
X121430750Y-79249038D01*
X118769250Y-79249038D01*
X118769250Y-64194389D01*
X121610000Y-64194389D01*
X121610000Y-64393111D01*
X121624871Y-64487000D01*
X121641087Y-64589387D01*
X121702493Y-64778379D01*
X121702494Y-64778382D01*
X121775299Y-64921268D01*
X121792713Y-64955444D01*
X121909519Y-65116214D01*
X122050036Y-65256731D01*
X122210806Y-65373537D01*
X122275187Y-65406341D01*
X122387867Y-65463755D01*
X122387870Y-65463756D01*
X122410224Y-65471019D01*
X122576864Y-65525163D01*
X122773139Y-65556250D01*
X122773140Y-65556250D01*
X122971860Y-65556250D01*
X122971861Y-65556250D01*
X123168136Y-65525163D01*
X123357132Y-65463755D01*
X123534194Y-65373537D01*
X123694964Y-65256731D01*
X123835481Y-65116214D01*
X123952287Y-64955444D01*
X124032015Y-64798968D01*
X124079990Y-64748173D01*
X124147811Y-64731378D01*
X124213946Y-64753915D01*
X124252984Y-64798968D01*
X124332713Y-64955444D01*
X124449519Y-65116214D01*
X124590036Y-65256731D01*
X124750806Y-65373537D01*
X124815187Y-65406341D01*
X124927867Y-65463755D01*
X124927870Y-65463756D01*
X124950224Y-65471019D01*
X125116864Y-65525163D01*
X125313139Y-65556250D01*
X125313140Y-65556250D01*
X125511860Y-65556250D01*
X125511861Y-65556250D01*
X125708136Y-65525163D01*
X125897132Y-65463755D01*
X126074194Y-65373537D01*
X126234964Y-65256731D01*
X126375481Y-65116214D01*
X126492287Y-64955444D01*
X126572015Y-64798968D01*
X126619990Y-64748173D01*
X126687811Y-64731378D01*
X126753946Y-64753915D01*
X126792984Y-64798968D01*
X126872713Y-64955444D01*
X126989519Y-65116214D01*
X127130036Y-65256731D01*
X127290806Y-65373537D01*
X127355187Y-65406341D01*
X127467867Y-65463755D01*
X127467870Y-65463756D01*
X127490224Y-65471019D01*
X127656864Y-65525163D01*
X127853139Y-65556250D01*
X127853140Y-65556250D01*
X128051860Y-65556250D01*
X128051861Y-65556250D01*
X128248136Y-65525163D01*
X128437132Y-65463755D01*
X128614194Y-65373537D01*
X128774964Y-65256731D01*
X128915481Y-65116214D01*
X129032287Y-64955444D01*
X129112015Y-64798968D01*
X129159990Y-64748173D01*
X129227811Y-64731378D01*
X129293946Y-64753915D01*
X129332984Y-64798968D01*
X129412713Y-64955444D01*
X129529519Y-65116214D01*
X129670036Y-65256731D01*
X129830806Y-65373537D01*
X129895187Y-65406341D01*
X130007867Y-65463755D01*
X130007870Y-65463756D01*
X130030224Y-65471019D01*
X130196864Y-65525163D01*
X130393139Y-65556250D01*
X130393140Y-65556250D01*
X130591860Y-65556250D01*
X130591861Y-65556250D01*
X130788136Y-65525163D01*
X130977132Y-65463755D01*
X131154194Y-65373537D01*
X131314964Y-65256731D01*
X131455481Y-65116214D01*
X131572287Y-64955444D01*
X131652015Y-64798968D01*
X131699990Y-64748173D01*
X131767811Y-64731378D01*
X131833946Y-64753915D01*
X131872984Y-64798968D01*
X131952713Y-64955444D01*
X132069519Y-65116214D01*
X132210036Y-65256731D01*
X132370806Y-65373537D01*
X132435187Y-65406341D01*
X132547867Y-65463755D01*
X132547870Y-65463756D01*
X132570224Y-65471019D01*
X132736864Y-65525163D01*
X132933139Y-65556250D01*
X132933140Y-65556250D01*
X133131860Y-65556250D01*
X133131861Y-65556250D01*
X133328136Y-65525163D01*
X133517132Y-65463755D01*
X133694194Y-65373537D01*
X133854964Y-65256731D01*
X133995481Y-65116214D01*
X134112287Y-64955444D01*
X134192015Y-64798968D01*
X134239990Y-64748173D01*
X134307811Y-64731378D01*
X134373946Y-64753915D01*
X134412984Y-64798968D01*
X134492713Y-64955444D01*
X134609519Y-65116214D01*
X134750036Y-65256731D01*
X134910806Y-65373537D01*
X134975187Y-65406341D01*
X135087867Y-65463755D01*
X135087870Y-65463756D01*
X135110224Y-65471019D01*
X135276864Y-65525163D01*
X135473139Y-65556250D01*
X135473140Y-65556250D01*
X135671860Y-65556250D01*
X135671861Y-65556250D01*
X135868136Y-65525163D01*
X136057132Y-65463755D01*
X136234194Y-65373537D01*
X136394964Y-65256731D01*
X136535481Y-65116214D01*
X136652287Y-64955444D01*
X136732015Y-64798968D01*
X136779990Y-64748173D01*
X136847811Y-64731378D01*
X136913946Y-64753915D01*
X136952984Y-64798968D01*
X137032713Y-64955444D01*
X137149519Y-65116214D01*
X137290036Y-65256731D01*
X137450806Y-65373537D01*
X137515187Y-65406341D01*
X137627867Y-65463755D01*
X137627870Y-65463756D01*
X137650224Y-65471019D01*
X137816864Y-65525163D01*
X138013139Y-65556250D01*
X138013140Y-65556250D01*
X138211860Y-65556250D01*
X138211861Y-65556250D01*
X138408136Y-65525163D01*
X138597132Y-65463755D01*
X138774194Y-65373537D01*
X138934964Y-65256731D01*
X139075481Y-65116214D01*
X139192287Y-64955444D01*
X139282505Y-64778382D01*
X139343913Y-64589386D01*
X139375000Y-64393111D01*
X139375000Y-64194389D01*
X139343913Y-63998114D01*
X139295451Y-63848962D01*
X139282506Y-63809120D01*
X139282505Y-63809117D01*
X139221918Y-63690210D01*
X139192287Y-63632056D01*
X139075481Y-63471286D01*
X138934964Y-63330769D01*
X138774194Y-63213963D01*
X138757155Y-63205281D01*
X138597132Y-63123744D01*
X138597129Y-63123743D01*
X138408137Y-63062337D01*
X138309998Y-63046793D01*
X138211861Y-63031250D01*
X138013139Y-63031250D01*
X137947714Y-63041612D01*
X137816862Y-63062337D01*
X137627870Y-63123743D01*
X137627867Y-63123744D01*
X137450805Y-63213963D01*
X137290033Y-63330771D01*
X137149521Y-63471283D01*
X137032713Y-63632055D01*
X136952985Y-63788530D01*
X136905010Y-63839326D01*
X136837189Y-63856121D01*
X136771054Y-63833583D01*
X136732015Y-63788530D01*
X136681918Y-63690210D01*
X136652287Y-63632056D01*
X136535481Y-63471286D01*
X136394964Y-63330769D01*
X136234194Y-63213963D01*
X136217155Y-63205281D01*
X136057132Y-63123744D01*
X136057129Y-63123743D01*
X135868137Y-63062337D01*
X135769998Y-63046793D01*
X135671861Y-63031250D01*
X135473139Y-63031250D01*
X135407714Y-63041612D01*
X135276862Y-63062337D01*
X135087870Y-63123743D01*
X135087867Y-63123744D01*
X134910805Y-63213963D01*
X134750033Y-63330771D01*
X134609521Y-63471283D01*
X134492713Y-63632055D01*
X134412985Y-63788530D01*
X134365010Y-63839326D01*
X134297189Y-63856121D01*
X134231054Y-63833583D01*
X134192015Y-63788530D01*
X134141918Y-63690210D01*
X134112287Y-63632056D01*
X133995481Y-63471286D01*
X133854964Y-63330769D01*
X133694194Y-63213963D01*
X133677155Y-63205281D01*
X133517132Y-63123744D01*
X133517129Y-63123743D01*
X133328137Y-63062337D01*
X133229998Y-63046793D01*
X133131861Y-63031250D01*
X132933139Y-63031250D01*
X132867714Y-63041612D01*
X132736862Y-63062337D01*
X132547870Y-63123743D01*
X132547867Y-63123744D01*
X132370805Y-63213963D01*
X132210033Y-63330771D01*
X132069521Y-63471283D01*
X131952713Y-63632055D01*
X131872985Y-63788530D01*
X131825010Y-63839326D01*
X131757189Y-63856121D01*
X131691054Y-63833583D01*
X131652015Y-63788530D01*
X131601918Y-63690210D01*
X131572287Y-63632056D01*
X131455481Y-63471286D01*
X131314964Y-63330769D01*
X131154194Y-63213963D01*
X131137155Y-63205281D01*
X130977132Y-63123744D01*
X130977129Y-63123743D01*
X130788137Y-63062337D01*
X130689998Y-63046793D01*
X130591861Y-63031250D01*
X130393139Y-63031250D01*
X130327714Y-63041612D01*
X130196862Y-63062337D01*
X130007870Y-63123743D01*
X130007867Y-63123744D01*
X129830805Y-63213963D01*
X129670033Y-63330771D01*
X129529521Y-63471283D01*
X129412713Y-63632055D01*
X129332985Y-63788530D01*
X129285010Y-63839326D01*
X129217189Y-63856121D01*
X129151054Y-63833583D01*
X129112015Y-63788530D01*
X129061918Y-63690210D01*
X129032287Y-63632056D01*
X128915481Y-63471286D01*
X128774964Y-63330769D01*
X128614194Y-63213963D01*
X128597155Y-63205281D01*
X128437132Y-63123744D01*
X128437129Y-63123743D01*
X128248137Y-63062337D01*
X128149998Y-63046793D01*
X128051861Y-63031250D01*
X127853139Y-63031250D01*
X127787714Y-63041612D01*
X127656862Y-63062337D01*
X127467870Y-63123743D01*
X127467867Y-63123744D01*
X127290805Y-63213963D01*
X127130033Y-63330771D01*
X126989521Y-63471283D01*
X126872713Y-63632055D01*
X126792985Y-63788530D01*
X126745010Y-63839326D01*
X126677189Y-63856121D01*
X126611054Y-63833583D01*
X126572015Y-63788530D01*
X126521918Y-63690210D01*
X126492287Y-63632056D01*
X126375481Y-63471286D01*
X126234964Y-63330769D01*
X126074194Y-63213963D01*
X126057155Y-63205281D01*
X125897132Y-63123744D01*
X125897129Y-63123743D01*
X125708137Y-63062337D01*
X125609998Y-63046793D01*
X125511861Y-63031250D01*
X125313139Y-63031250D01*
X125247714Y-63041612D01*
X125116862Y-63062337D01*
X124927870Y-63123743D01*
X124927867Y-63123744D01*
X124750805Y-63213963D01*
X124590033Y-63330771D01*
X124449521Y-63471283D01*
X124332713Y-63632055D01*
X124252985Y-63788530D01*
X124205010Y-63839326D01*
X124137189Y-63856121D01*
X124071054Y-63833583D01*
X124032015Y-63788530D01*
X123981918Y-63690210D01*
X123952287Y-63632056D01*
X123835481Y-63471286D01*
X123694964Y-63330769D01*
X123534194Y-63213963D01*
X123517155Y-63205281D01*
X123357132Y-63123744D01*
X123357129Y-63123743D01*
X123168137Y-63062337D01*
X123069998Y-63046793D01*
X122971861Y-63031250D01*
X122773139Y-63031250D01*
X122707714Y-63041612D01*
X122576862Y-63062337D01*
X122387870Y-63123743D01*
X122387867Y-63123744D01*
X122210805Y-63213963D01*
X122050033Y-63330771D01*
X121909521Y-63471283D01*
X121792713Y-63632055D01*
X121702494Y-63809117D01*
X121702493Y-63809120D01*
X121641087Y-63998112D01*
X121639719Y-64006749D01*
X121610000Y-64194389D01*
X118769250Y-64194389D01*
X118769250Y-48954389D01*
X121610000Y-48954389D01*
X121610000Y-49153110D01*
X121641087Y-49349387D01*
X121702493Y-49538379D01*
X121702494Y-49538382D01*
X121752561Y-49636642D01*
X121792713Y-49715444D01*
X121909519Y-49876214D01*
X122050036Y-50016731D01*
X122210806Y-50133537D01*
X122297649Y-50177785D01*
X122387867Y-50223755D01*
X122387870Y-50223756D01*
X122482366Y-50254459D01*
X122576864Y-50285163D01*
X122773139Y-50316250D01*
X122773140Y-50316250D01*
X122971860Y-50316250D01*
X122971861Y-50316250D01*
X123168136Y-50285163D01*
X123357132Y-50223755D01*
X123534194Y-50133537D01*
X123694964Y-50016731D01*
X123835481Y-49876214D01*
X123952287Y-49715444D01*
X124032296Y-49558417D01*
X124080269Y-49507622D01*
X124148090Y-49490827D01*
X124214225Y-49513364D01*
X124253265Y-49558418D01*
X124333141Y-49715182D01*
X124360230Y-49752465D01*
X124360231Y-49752466D01*
X124974852Y-49137844D01*
X124998292Y-49225321D01*
X125056811Y-49326680D01*
X125139570Y-49409439D01*
X125240929Y-49467958D01*
X125328405Y-49491397D01*
X124713783Y-50106018D01*
X124713783Y-50106019D01*
X124751067Y-50133108D01*
X124928062Y-50223292D01*
X125116977Y-50284674D01*
X125313179Y-50315750D01*
X125511821Y-50315750D01*
X125708020Y-50284674D01*
X125708023Y-50284674D01*
X125896937Y-50223292D01*
X126073925Y-50133112D01*
X126111216Y-50106018D01*
X125496595Y-49491397D01*
X125584071Y-49467958D01*
X125685430Y-49409439D01*
X125768189Y-49326680D01*
X125826708Y-49225321D01*
X125850147Y-49137844D01*
X126464768Y-49752465D01*
X126474519Y-49739046D01*
X126529850Y-49696381D01*
X126599463Y-49690403D01*
X126661258Y-49723010D01*
X126662517Y-49724252D01*
X142390139Y-65451874D01*
X142390149Y-65451885D01*
X142394479Y-65456215D01*
X142394480Y-65456216D01*
X142506284Y-65568020D01*
X142506286Y-65568021D01*
X142506290Y-65568024D01*
X142569983Y-65604797D01*
X142569987Y-65604798D01*
X142569988Y-65604799D01*
X142600545Y-65622441D01*
X142643212Y-65647076D01*
X142643214Y-65647076D01*
X142643215Y-65647077D01*
X142795942Y-65688000D01*
X142795943Y-65688000D01*
X146516270Y-65688000D01*
X146583309Y-65707685D01*
X146629064Y-65760489D01*
X146639008Y-65829647D01*
X146609983Y-65893203D01*
X146603951Y-65899681D01*
X146529789Y-65973842D01*
X146437687Y-66123163D01*
X146437686Y-66123166D01*
X146382501Y-66289703D01*
X146382501Y-66289704D01*
X146382500Y-66289704D01*
X146372000Y-66392483D01*
X146372000Y-67592501D01*
X146372001Y-67592518D01*
X146382500Y-67695296D01*
X146382501Y-67695299D01*
X146393951Y-67729851D01*
X146437686Y-67861834D01*
X146529788Y-68011156D01*
X146653844Y-68135212D01*
X146803166Y-68227314D01*
X146969703Y-68282499D01*
X147072491Y-68293000D01*
X148072402Y-68292999D01*
X148139441Y-68312683D01*
X148160083Y-68329318D01*
X154320139Y-74489374D01*
X154320149Y-74489385D01*
X154324479Y-74493715D01*
X154324480Y-74493716D01*
X154436284Y-74605520D01*
X154523095Y-74655639D01*
X154523097Y-74655641D01*
X154573213Y-74684576D01*
X154573215Y-74684577D01*
X154725942Y-74725500D01*
X154725943Y-74725500D01*
X166591825Y-74725500D01*
X166591841Y-74725501D01*
X166599437Y-74725501D01*
X166757548Y-74725501D01*
X166757551Y-74725501D01*
X166910279Y-74684577D01*
X166960398Y-74655639D01*
X167047210Y-74605520D01*
X167159014Y-74493716D01*
X167159014Y-74493714D01*
X167169222Y-74483507D01*
X167169224Y-74483504D01*
X167362463Y-74290265D01*
X167362466Y-74290264D01*
X167474270Y-74178460D01*
X167499067Y-74135507D01*
X167507535Y-74126011D01*
X167526819Y-74113999D01*
X167543264Y-74098319D01*
X167555911Y-74095881D01*
X167566842Y-74089073D01*
X167589558Y-74089394D01*
X167611870Y-74085094D01*
X167624547Y-74089890D01*
X167636705Y-74090063D01*
X167652270Y-74100380D01*
X167672973Y-74108214D01*
X167712401Y-74136860D01*
X167894718Y-74229755D01*
X168089332Y-74292990D01*
X168291433Y-74325000D01*
X168496067Y-74325000D01*
X168698167Y-74292990D01*
X168892781Y-74229755D01*
X169075099Y-74136859D01*
X169119671Y-74104474D01*
X168440197Y-73425000D01*
X168446411Y-73425000D01*
X168548144Y-73397741D01*
X168639356Y-73345080D01*
X168713830Y-73270606D01*
X168766491Y-73179394D01*
X168793750Y-73077661D01*
X168793750Y-73071447D01*
X169473224Y-73750921D01*
X169505609Y-73706349D01*
X169598505Y-73524031D01*
X169661740Y-73329417D01*
X169693750Y-73127317D01*
X169693750Y-72922682D01*
X169661740Y-72720582D01*
X169598505Y-72525968D01*
X169505609Y-72343650D01*
X169473224Y-72299077D01*
X169473224Y-72299076D01*
X168793750Y-72978551D01*
X168793750Y-72972339D01*
X168766491Y-72870606D01*
X168713830Y-72779394D01*
X168639356Y-72704920D01*
X168548144Y-72652259D01*
X168446411Y-72625000D01*
X168440196Y-72625000D01*
X169119672Y-71945524D01*
X169119671Y-71945523D01*
X169075109Y-71913147D01*
X169075100Y-71913141D01*
X168892781Y-71820244D01*
X168698167Y-71757009D01*
X168496067Y-71725000D01*
X168291433Y-71725000D01*
X168089332Y-71757009D01*
X167894718Y-71820244D01*
X167712399Y-71913141D01*
X167712392Y-71913145D01*
X167672973Y-71941785D01*
X167607167Y-71965264D01*
X167539113Y-71949438D01*
X167492701Y-71903464D01*
X167474272Y-71871543D01*
X167474268Y-71871538D01*
X166882089Y-71279359D01*
X166178619Y-70575889D01*
X186630750Y-70575889D01*
X186630750Y-70749110D01*
X186653606Y-70893422D01*
X186657848Y-70920201D01*
X186711377Y-71084945D01*
X186790018Y-71239288D01*
X186891836Y-71379428D01*
X187014322Y-71501914D01*
X187154462Y-71603732D01*
X187308805Y-71682373D01*
X187473549Y-71735902D01*
X187644639Y-71763000D01*
X187644640Y-71763000D01*
X188417860Y-71763000D01*
X188417861Y-71763000D01*
X188588951Y-71735902D01*
X188753695Y-71682373D01*
X188908038Y-71603732D01*
X189048178Y-71501914D01*
X189170664Y-71379428D01*
X189272482Y-71239288D01*
X189351123Y-71084945D01*
X189404652Y-70920201D01*
X189431750Y-70749111D01*
X189431750Y-70575889D01*
X189404652Y-70404799D01*
X189351123Y-70240055D01*
X189272482Y-70085712D01*
X189170664Y-69945572D01*
X189048178Y-69823086D01*
X188908038Y-69721268D01*
X188753695Y-69642627D01*
X188588951Y-69589098D01*
X188588949Y-69589097D01*
X188588948Y-69589097D01*
X188449423Y-69566999D01*
X188417861Y-69562000D01*
X187644639Y-69562000D01*
X187613077Y-69566999D01*
X187473552Y-69589097D01*
X187308802Y-69642628D01*
X187154461Y-69721268D01*
X187090829Y-69767500D01*
X187014322Y-69823086D01*
X187014320Y-69823088D01*
X187014319Y-69823088D01*
X186891838Y-69945569D01*
X186891838Y-69945570D01*
X186891836Y-69945572D01*
X186848109Y-70005756D01*
X186790018Y-70085711D01*
X186711378Y-70240052D01*
X186657847Y-70404802D01*
X186630750Y-70575889D01*
X166178619Y-70575889D01*
X165408583Y-69805854D01*
X165408582Y-69805852D01*
X165289711Y-69686981D01*
X165289710Y-69686980D01*
X165202898Y-69636860D01*
X165202898Y-69636859D01*
X165202894Y-69636858D01*
X165152779Y-69607923D01*
X165000051Y-69566999D01*
X164841937Y-69566999D01*
X164834341Y-69566999D01*
X164834325Y-69567000D01*
X163154602Y-69567000D01*
X163087563Y-69547315D01*
X163044117Y-69499295D01*
X163037284Y-69485885D01*
X162916971Y-69320286D01*
X162772213Y-69175528D01*
X162606614Y-69055215D01*
X162600006Y-69051848D01*
X162513917Y-69007983D01*
X162463123Y-68960011D01*
X162446328Y-68892190D01*
X162468865Y-68826055D01*
X162513917Y-68787016D01*
X162606610Y-68739787D01*
X162627770Y-68724413D01*
X162772213Y-68619471D01*
X162772215Y-68619468D01*
X162772219Y-68619466D01*
X162916966Y-68474719D01*
X162916968Y-68474715D01*
X162916971Y-68474713D01*
X162990748Y-68373166D01*
X163037287Y-68309110D01*
X163105167Y-68175889D01*
X182930750Y-68175889D01*
X182930750Y-68349110D01*
X182955310Y-68504181D01*
X182957848Y-68520201D01*
X183011377Y-68684945D01*
X183090018Y-68839288D01*
X183191836Y-68979428D01*
X183314322Y-69101914D01*
X183454462Y-69203732D01*
X183608805Y-69282373D01*
X183773549Y-69335902D01*
X183944639Y-69363000D01*
X183944640Y-69363000D01*
X184117860Y-69363000D01*
X184117861Y-69363000D01*
X184288951Y-69335902D01*
X184453695Y-69282373D01*
X184608038Y-69203732D01*
X184748178Y-69101914D01*
X184870664Y-68979428D01*
X184972482Y-68839288D01*
X185051123Y-68684945D01*
X185104652Y-68520201D01*
X185131750Y-68349111D01*
X185131750Y-68175889D01*
X185104652Y-68004799D01*
X185051123Y-67840055D01*
X184972482Y-67685712D01*
X184870664Y-67545572D01*
X184748178Y-67423086D01*
X184608038Y-67321268D01*
X184453695Y-67242627D01*
X184288951Y-67189098D01*
X184288949Y-67189097D01*
X184288948Y-67189097D01*
X184136758Y-67164993D01*
X184117861Y-67162000D01*
X183944639Y-67162000D01*
X183925742Y-67164993D01*
X183773552Y-67189097D01*
X183608802Y-67242628D01*
X183454461Y-67321268D01*
X183374506Y-67379359D01*
X183314322Y-67423086D01*
X183314320Y-67423088D01*
X183314319Y-67423088D01*
X183191838Y-67545569D01*
X183191838Y-67545570D01*
X183191836Y-67545572D01*
X183157740Y-67592501D01*
X183090018Y-67685711D01*
X183011378Y-67840052D01*
X183011377Y-67840054D01*
X183011377Y-67840055D01*
X183004301Y-67861834D01*
X182957847Y-68004802D01*
X182930750Y-68175889D01*
X163105167Y-68175889D01*
X163130220Y-68126719D01*
X163193477Y-67932034D01*
X163225500Y-67729852D01*
X163225500Y-67525148D01*
X163212610Y-67443764D01*
X163193477Y-67322965D01*
X163154963Y-67204431D01*
X163130220Y-67128281D01*
X163130218Y-67128278D01*
X163130218Y-67128276D01*
X163081054Y-67031788D01*
X163037287Y-66945890D01*
X162991140Y-66882373D01*
X162916971Y-66780286D01*
X162772213Y-66635528D01*
X162606614Y-66515215D01*
X162563933Y-66493468D01*
X162513917Y-66467983D01*
X162463123Y-66420011D01*
X162446328Y-66352190D01*
X162468865Y-66286055D01*
X162513917Y-66247016D01*
X162606610Y-66199787D01*
X162716152Y-66120201D01*
X162772213Y-66079471D01*
X162772215Y-66079468D01*
X162772219Y-66079466D01*
X162916966Y-65934719D01*
X162916968Y-65934715D01*
X162916971Y-65934713D01*
X163032362Y-65775889D01*
X181630750Y-65775889D01*
X181630750Y-65949110D01*
X181655053Y-66102559D01*
X181657848Y-66120201D01*
X181711377Y-66284945D01*
X181790018Y-66439288D01*
X181891836Y-66579428D01*
X182014322Y-66701914D01*
X182154462Y-66803732D01*
X182308805Y-66882373D01*
X182473549Y-66935902D01*
X182644639Y-66963000D01*
X182644640Y-66963000D01*
X183417860Y-66963000D01*
X183417861Y-66963000D01*
X183588951Y-66935902D01*
X183753695Y-66882373D01*
X183908038Y-66803732D01*
X184048178Y-66701914D01*
X184170664Y-66579428D01*
X184272482Y-66439288D01*
X184351123Y-66284945D01*
X184404652Y-66120201D01*
X184431750Y-65949111D01*
X184431750Y-65775889D01*
X184420948Y-65707685D01*
X184414815Y-65668962D01*
X184414815Y-65668960D01*
X184405872Y-65612499D01*
X188657134Y-65612499D01*
X188657135Y-65612500D01*
X189564264Y-65612500D01*
X189547046Y-65622441D01*
X189491191Y-65678296D01*
X189451695Y-65746705D01*
X189431251Y-65823004D01*
X189431251Y-65901996D01*
X189451695Y-65978295D01*
X189491191Y-66046704D01*
X189547046Y-66102559D01*
X189564264Y-66112500D01*
X188657135Y-66112500D01*
X188658335Y-66120084D01*
X188711841Y-66284755D01*
X188790445Y-66439024D01*
X188892217Y-66579102D01*
X189014647Y-66701532D01*
X189154725Y-66803304D01*
X189308992Y-66881908D01*
X189473665Y-66935414D01*
X189644679Y-66962500D01*
X189688042Y-66962500D01*
X189755081Y-66982185D01*
X189800836Y-67034989D01*
X189810780Y-67104147D01*
X189781755Y-67167703D01*
X189726360Y-67204430D01*
X189628007Y-67236388D01*
X189608802Y-67242628D01*
X189454461Y-67321268D01*
X189374506Y-67379359D01*
X189314322Y-67423086D01*
X189314320Y-67423088D01*
X189314319Y-67423088D01*
X189191838Y-67545569D01*
X189191838Y-67545570D01*
X189191836Y-67545572D01*
X189157740Y-67592501D01*
X189090018Y-67685711D01*
X189011378Y-67840052D01*
X189011377Y-67840054D01*
X189011377Y-67840055D01*
X189004301Y-67861834D01*
X188957847Y-68004802D01*
X188930750Y-68175889D01*
X188930750Y-68349110D01*
X188955310Y-68504181D01*
X188957848Y-68520201D01*
X189011377Y-68684945D01*
X189090018Y-68839288D01*
X189191836Y-68979428D01*
X189314322Y-69101914D01*
X189454462Y-69203732D01*
X189608805Y-69282373D01*
X189773549Y-69335902D01*
X189944639Y-69363000D01*
X189944640Y-69363000D01*
X190117860Y-69363000D01*
X190117861Y-69363000D01*
X190288951Y-69335902D01*
X190453695Y-69282373D01*
X190608038Y-69203732D01*
X190748178Y-69101914D01*
X190870664Y-68979428D01*
X190972482Y-68839288D01*
X191051123Y-68684945D01*
X191104652Y-68520201D01*
X191131750Y-68349111D01*
X191131750Y-68175889D01*
X191104652Y-68004799D01*
X191051123Y-67840055D01*
X190972482Y-67685712D01*
X190870664Y-67545572D01*
X190748178Y-67423086D01*
X190608038Y-67321268D01*
X190453695Y-67242627D01*
X190336139Y-67204430D01*
X190278464Y-67164993D01*
X190251266Y-67100635D01*
X190263181Y-67031788D01*
X190310425Y-66980313D01*
X190374458Y-66962500D01*
X190417821Y-66962500D01*
X190588834Y-66935414D01*
X190753507Y-66881908D01*
X190907774Y-66803304D01*
X191047852Y-66701532D01*
X191170282Y-66579102D01*
X191272054Y-66439024D01*
X191350658Y-66284755D01*
X191404164Y-66120084D01*
X191405365Y-66112500D01*
X190498236Y-66112500D01*
X190515454Y-66102559D01*
X190571309Y-66046704D01*
X190610805Y-65978295D01*
X190631249Y-65901996D01*
X190631249Y-65823004D01*
X190610805Y-65746705D01*
X190571309Y-65678296D01*
X190515454Y-65622441D01*
X190498236Y-65612500D01*
X191405365Y-65612500D01*
X191405365Y-65612499D01*
X191404164Y-65604915D01*
X191350658Y-65440244D01*
X191272054Y-65285975D01*
X191170282Y-65145897D01*
X191047852Y-65023467D01*
X190907774Y-64921695D01*
X190753507Y-64843091D01*
X190588834Y-64789585D01*
X190417821Y-64762500D01*
X190281250Y-64762500D01*
X190281250Y-65562501D01*
X189781250Y-65562501D01*
X189781250Y-64762500D01*
X189644679Y-64762500D01*
X189473665Y-64789585D01*
X189308992Y-64843091D01*
X189154725Y-64921695D01*
X189014647Y-65023467D01*
X188892217Y-65145897D01*
X188790445Y-65285975D01*
X188711841Y-65440244D01*
X188658335Y-65604915D01*
X188657134Y-65612499D01*
X184405872Y-65612499D01*
X184404652Y-65604800D01*
X184404651Y-65604797D01*
X184351123Y-65440055D01*
X184272482Y-65285712D01*
X184170664Y-65145572D01*
X184048178Y-65023086D01*
X183908038Y-64921268D01*
X183753695Y-64842627D01*
X183588951Y-64789098D01*
X183588949Y-64789097D01*
X183588948Y-64789097D01*
X183457521Y-64768281D01*
X183417861Y-64762000D01*
X182644639Y-64762000D01*
X182604978Y-64768281D01*
X182473552Y-64789097D01*
X182308802Y-64842628D01*
X182154461Y-64921268D01*
X182107423Y-64955444D01*
X182014322Y-65023086D01*
X182014320Y-65023088D01*
X182014319Y-65023088D01*
X181891838Y-65145569D01*
X181891838Y-65145570D01*
X181891836Y-65145572D01*
X181891600Y-65145897D01*
X181790018Y-65285711D01*
X181711378Y-65440052D01*
X181711377Y-65440054D01*
X181711377Y-65440055D01*
X181657848Y-65604799D01*
X181640753Y-65712733D01*
X181630750Y-65775889D01*
X163032362Y-65775889D01*
X163037287Y-65769110D01*
X163130220Y-65586719D01*
X163193477Y-65392034D01*
X163225500Y-65189852D01*
X163225500Y-64985148D01*
X163193477Y-64782966D01*
X163188825Y-64768651D01*
X163186832Y-64698812D01*
X163219075Y-64642658D01*
X164334808Y-63526925D01*
X164396129Y-63493442D01*
X164465821Y-63498426D01*
X164521754Y-63540298D01*
X164536837Y-63569179D01*
X164537136Y-63569041D01*
X164540185Y-63575583D01*
X164540186Y-63575584D01*
X164632288Y-63724906D01*
X164756344Y-63848962D01*
X164905666Y-63941064D01*
X165072203Y-63996249D01*
X165174991Y-64006750D01*
X166375008Y-64006749D01*
X166477797Y-63996249D01*
X166644334Y-63941064D01*
X166793656Y-63848962D01*
X166917712Y-63724906D01*
X167009814Y-63575584D01*
X167033102Y-63505304D01*
X167037110Y-63497300D01*
X167055060Y-63478022D01*
X167070055Y-63456366D01*
X167078495Y-63452856D01*
X167084725Y-63446167D01*
X167110249Y-63439654D01*
X167134571Y-63429542D01*
X167150834Y-63429298D01*
X167152425Y-63428893D01*
X167153523Y-63429258D01*
X167157719Y-63429196D01*
X167195525Y-63432171D01*
X167875000Y-62752696D01*
X167875000Y-62758911D01*
X167902259Y-62860644D01*
X167954920Y-62951856D01*
X168029394Y-63026330D01*
X168120606Y-63078991D01*
X168222339Y-63106250D01*
X168228553Y-63106250D01*
X167549076Y-63785724D01*
X167593650Y-63818109D01*
X167775968Y-63911005D01*
X167970582Y-63974240D01*
X168172683Y-64006250D01*
X168377317Y-64006250D01*
X168579417Y-63974240D01*
X168774031Y-63911005D01*
X168956349Y-63818109D01*
X169000921Y-63785724D01*
X168321447Y-63106250D01*
X168327661Y-63106250D01*
X168429394Y-63078991D01*
X168520606Y-63026330D01*
X168595080Y-62951856D01*
X168647741Y-62860644D01*
X168675000Y-62758911D01*
X168675000Y-62752697D01*
X169354474Y-63432171D01*
X169386859Y-63387599D01*
X169479755Y-63205281D01*
X169542990Y-63010667D01*
X169575000Y-62808567D01*
X169575000Y-62603932D01*
X169542990Y-62401832D01*
X169479755Y-62207218D01*
X169386859Y-62024900D01*
X169354474Y-61980327D01*
X169354474Y-61980326D01*
X168675000Y-62659801D01*
X168675000Y-62653589D01*
X168647741Y-62551856D01*
X168595080Y-62460644D01*
X168520606Y-62386170D01*
X168429394Y-62333509D01*
X168327661Y-62306250D01*
X168321446Y-62306250D01*
X169000922Y-61626774D01*
X169000921Y-61626773D01*
X168956359Y-61594397D01*
X168956350Y-61594391D01*
X168774031Y-61501494D01*
X168579417Y-61438259D01*
X168377317Y-61406250D01*
X168172683Y-61406250D01*
X167970582Y-61438259D01*
X167775968Y-61501494D01*
X167593644Y-61594393D01*
X167549077Y-61626773D01*
X167549077Y-61626774D01*
X168228554Y-62306250D01*
X168222339Y-62306250D01*
X168120606Y-62333509D01*
X168029394Y-62386170D01*
X167954920Y-62460644D01*
X167902259Y-62551856D01*
X167875000Y-62653589D01*
X167875000Y-62659803D01*
X167195524Y-61980327D01*
X167157719Y-61983303D01*
X167089341Y-61968939D01*
X167039584Y-61919888D01*
X167037110Y-61915199D01*
X167033101Y-61907192D01*
X167009814Y-61836916D01*
X166917712Y-61687594D01*
X166793656Y-61563538D01*
X166644334Y-61471436D01*
X166477797Y-61416251D01*
X166477795Y-61416250D01*
X166375010Y-61405750D01*
X165174998Y-61405750D01*
X165174981Y-61405751D01*
X165072203Y-61416250D01*
X165072198Y-61416251D01*
X165069751Y-61417063D01*
X165068152Y-61417117D01*
X165065578Y-61417669D01*
X165065479Y-61417209D01*
X164999923Y-61419463D01*
X164939882Y-61383730D01*
X164908691Y-61321209D01*
X164906750Y-61299356D01*
X164906750Y-54275096D01*
X164926435Y-54208057D01*
X164943064Y-54187420D01*
X176600339Y-42530144D01*
X176661660Y-42496661D01*
X176726336Y-42499896D01*
X176819437Y-42530146D01*
X176860466Y-42543477D01*
X177062648Y-42575500D01*
X177062649Y-42575500D01*
X177267351Y-42575500D01*
X177267352Y-42575500D01*
X177469534Y-42543477D01*
X177664219Y-42480220D01*
X177846610Y-42387287D01*
X177939590Y-42319732D01*
X178012213Y-42266971D01*
X178012215Y-42266968D01*
X178012219Y-42266966D01*
X178156966Y-42122219D01*
X178156968Y-42122215D01*
X178156971Y-42122213D01*
X178209732Y-42049590D01*
X178277287Y-41956610D01*
X178370220Y-41774219D01*
X178433477Y-41579534D01*
X178465500Y-41377352D01*
X178465500Y-41172682D01*
X183485000Y-41172682D01*
X183485000Y-41377317D01*
X183517009Y-41579417D01*
X183580244Y-41774031D01*
X183673141Y-41956350D01*
X183673147Y-41956359D01*
X183705523Y-42000921D01*
X183705524Y-42000922D01*
X184385000Y-41321446D01*
X184385000Y-41327661D01*
X184412259Y-41429394D01*
X184464920Y-41520606D01*
X184539394Y-41595080D01*
X184630606Y-41647741D01*
X184732339Y-41675000D01*
X184738553Y-41675000D01*
X184059076Y-42354474D01*
X184103650Y-42386859D01*
X184285968Y-42479755D01*
X184480582Y-42542990D01*
X184682683Y-42575000D01*
X184887317Y-42575000D01*
X185089417Y-42542990D01*
X185284031Y-42479755D01*
X185466349Y-42386859D01*
X185510921Y-42354474D01*
X184831447Y-41675000D01*
X184837661Y-41675000D01*
X184939394Y-41647741D01*
X185030606Y-41595080D01*
X185105080Y-41520606D01*
X185157741Y-41429394D01*
X185185000Y-41327661D01*
X185185000Y-41321447D01*
X185864474Y-42000921D01*
X185896859Y-41956349D01*
X185989755Y-41774031D01*
X186052990Y-41579417D01*
X186085000Y-41377317D01*
X186085000Y-41172682D01*
X186052990Y-40970582D01*
X185989755Y-40775968D01*
X185896859Y-40593650D01*
X185864474Y-40549077D01*
X185864474Y-40549076D01*
X185185000Y-41228551D01*
X185185000Y-41222339D01*
X185157741Y-41120606D01*
X185105080Y-41029394D01*
X185030606Y-40954920D01*
X184939394Y-40902259D01*
X184837661Y-40875000D01*
X184831446Y-40875000D01*
X185510922Y-40195524D01*
X185510921Y-40195523D01*
X185466359Y-40163147D01*
X185466350Y-40163141D01*
X185284031Y-40070244D01*
X185089417Y-40007009D01*
X184887317Y-39975000D01*
X184682683Y-39975000D01*
X184480582Y-40007009D01*
X184285968Y-40070244D01*
X184103644Y-40163143D01*
X184059077Y-40195523D01*
X184059077Y-40195524D01*
X184738554Y-40875000D01*
X184732339Y-40875000D01*
X184630606Y-40902259D01*
X184539394Y-40954920D01*
X184464920Y-41029394D01*
X184412259Y-41120606D01*
X184385000Y-41222339D01*
X184385000Y-41228553D01*
X183705524Y-40549077D01*
X183705523Y-40549077D01*
X183673143Y-40593644D01*
X183580244Y-40775968D01*
X183517009Y-40970582D01*
X183485000Y-41172682D01*
X178465500Y-41172682D01*
X178465500Y-41172648D01*
X178453712Y-41098223D01*
X178433477Y-40970465D01*
X178402458Y-40875000D01*
X178370220Y-40775781D01*
X178370218Y-40775778D01*
X178370218Y-40775776D01*
X178328380Y-40693665D01*
X178277287Y-40593390D01*
X178245092Y-40549077D01*
X178156971Y-40427786D01*
X178012213Y-40283028D01*
X177846613Y-40162715D01*
X177846612Y-40162714D01*
X177846610Y-40162713D01*
X177789653Y-40133691D01*
X177664223Y-40069781D01*
X177469534Y-40006522D01*
X177294995Y-39978878D01*
X177267352Y-39974500D01*
X177062648Y-39974500D01*
X177038329Y-39978351D01*
X176860465Y-40006522D01*
X176665776Y-40069781D01*
X176483386Y-40162715D01*
X176317786Y-40283028D01*
X176173028Y-40427786D01*
X176052715Y-40593385D01*
X176045883Y-40606795D01*
X175997909Y-40657591D01*
X175935398Y-40674500D01*
X174766347Y-40674500D01*
X174699308Y-40654815D01*
X174678666Y-40638181D01*
X170527665Y-36487180D01*
X170494180Y-36425857D01*
X170496992Y-36386538D01*
X189693250Y-36386538D01*
X189693250Y-36638461D01*
X189732660Y-36887285D01*
X189810510Y-37126883D01*
X189924882Y-37351348D01*
X190072951Y-37555149D01*
X190072955Y-37555154D01*
X190251095Y-37733294D01*
X190251100Y-37733298D01*
X190428867Y-37862452D01*
X190454905Y-37881370D01*
X190597934Y-37954247D01*
X190679366Y-37995739D01*
X190679368Y-37995739D01*
X190679371Y-37995741D01*
X190918965Y-38073590D01*
X191167788Y-38113000D01*
X191167789Y-38113000D01*
X191419711Y-38113000D01*
X191419712Y-38113000D01*
X191668535Y-38073590D01*
X191908129Y-37995741D01*
X192132595Y-37881370D01*
X192336406Y-37733293D01*
X192514543Y-37555156D01*
X192662620Y-37351345D01*
X192776991Y-37126879D01*
X192854840Y-36887285D01*
X192894250Y-36638462D01*
X192894250Y-36386538D01*
X192854840Y-36137715D01*
X192776991Y-35898121D01*
X192776989Y-35898118D01*
X192776989Y-35898116D01*
X192731115Y-35808084D01*
X192662620Y-35673655D01*
X192632756Y-35632550D01*
X192514548Y-35469850D01*
X192514544Y-35469845D01*
X192336404Y-35291705D01*
X192336399Y-35291701D01*
X192132598Y-35143632D01*
X192132597Y-35143631D01*
X192132595Y-35143630D01*
X192050454Y-35101777D01*
X191908133Y-35029260D01*
X191668535Y-34951410D01*
X191501796Y-34925001D01*
X191419712Y-34912000D01*
X191167788Y-34912000D01*
X191085710Y-34925000D01*
X190918964Y-34951410D01*
X190679366Y-35029260D01*
X190454901Y-35143632D01*
X190251100Y-35291701D01*
X190251095Y-35291705D01*
X190072955Y-35469845D01*
X190072951Y-35469850D01*
X189924882Y-35673651D01*
X189810510Y-35898116D01*
X189732660Y-36137714D01*
X189693250Y-36386538D01*
X170496992Y-36386538D01*
X170499164Y-36356165D01*
X170541036Y-36300232D01*
X170606500Y-36275815D01*
X170615346Y-36275499D01*
X171554121Y-36275499D01*
X171554122Y-36275499D01*
X171613733Y-36269091D01*
X171748581Y-36218796D01*
X171863796Y-36132546D01*
X171950046Y-36017331D01*
X172000341Y-35882483D01*
X172006750Y-35822873D01*
X172006749Y-34499499D01*
X172026434Y-34432461D01*
X172079237Y-34386706D01*
X172130749Y-34375500D01*
X176864648Y-34375500D01*
X176931687Y-34395185D01*
X176977442Y-34447989D01*
X176987386Y-34517147D01*
X176982579Y-34537818D01*
X176959492Y-34608869D01*
X176959492Y-34608872D01*
X176926250Y-34818753D01*
X176926250Y-35031246D01*
X176959492Y-35241127D01*
X176959492Y-35241130D01*
X177025154Y-35443217D01*
X177121625Y-35632550D01*
X177160978Y-35686716D01*
X177793286Y-35054407D01*
X177810325Y-35117993D01*
X177876151Y-35232007D01*
X177969243Y-35325099D01*
X178083257Y-35390925D01*
X178146840Y-35407962D01*
X177514532Y-36040269D01*
X177514532Y-36040270D01*
X177568699Y-36079624D01*
X177758032Y-36176095D01*
X177960120Y-36241757D01*
X178170004Y-36275000D01*
X178382496Y-36275000D01*
X178592377Y-36241757D01*
X178592380Y-36241757D01*
X178794467Y-36176095D01*
X178983804Y-36079622D01*
X179037966Y-36040270D01*
X179037967Y-36040270D01*
X178405658Y-35407962D01*
X178469243Y-35390925D01*
X178583257Y-35325099D01*
X178676349Y-35232007D01*
X178742175Y-35117993D01*
X178759212Y-35054409D01*
X179391520Y-35686717D01*
X179391520Y-35686716D01*
X179430872Y-35632555D01*
X179435482Y-35623507D01*
X179483455Y-35572709D01*
X179551275Y-35555912D01*
X179617411Y-35578447D01*
X179656454Y-35623504D01*
X179661199Y-35632817D01*
X179786140Y-35804786D01*
X179936463Y-35955109D01*
X180108429Y-36080048D01*
X180108431Y-36080049D01*
X180108434Y-36080051D01*
X180297838Y-36176557D01*
X180500007Y-36242246D01*
X180709963Y-36275500D01*
X180709964Y-36275500D01*
X180922536Y-36275500D01*
X180922537Y-36275500D01*
X181132493Y-36242246D01*
X181334662Y-36176557D01*
X181524066Y-36080051D01*
X181696042Y-35955104D01*
X181809579Y-35841566D01*
X181870898Y-35808084D01*
X181940590Y-35813068D01*
X181996524Y-35854939D01*
X182013439Y-35885917D01*
X182062452Y-36017328D01*
X182062456Y-36017335D01*
X182148702Y-36132544D01*
X182148705Y-36132547D01*
X182263914Y-36218793D01*
X182263921Y-36218797D01*
X182398767Y-36269091D01*
X182398766Y-36269091D01*
X182405694Y-36269835D01*
X182458377Y-36275500D01*
X184254122Y-36275499D01*
X184313733Y-36269091D01*
X184323404Y-36265484D01*
X184323405Y-36265484D01*
X184427896Y-36226511D01*
X184448581Y-36218796D01*
X184563796Y-36132546D01*
X184650046Y-36017331D01*
X184700341Y-35882483D01*
X184706750Y-35822873D01*
X184706749Y-34027128D01*
X184700341Y-33967517D01*
X184699060Y-33964083D01*
X184650047Y-33832671D01*
X184650043Y-33832664D01*
X184563797Y-33717455D01*
X184563794Y-33717452D01*
X184448585Y-33631206D01*
X184448578Y-33631202D01*
X184313732Y-33580908D01*
X184313733Y-33580908D01*
X184254133Y-33574501D01*
X184254131Y-33574500D01*
X184254123Y-33574500D01*
X184254114Y-33574500D01*
X182458379Y-33574500D01*
X182458373Y-33574501D01*
X182398766Y-33580908D01*
X182263921Y-33631202D01*
X182263914Y-33631206D01*
X182148705Y-33717452D01*
X182148702Y-33717455D01*
X182062456Y-33832664D01*
X182062453Y-33832669D01*
X182013439Y-33964083D01*
X181971567Y-34020016D01*
X181906103Y-34044433D01*
X181837830Y-34029581D01*
X181809576Y-34008430D01*
X181696036Y-33894890D01*
X181524070Y-33769951D01*
X181334664Y-33673444D01*
X181334663Y-33673443D01*
X181334662Y-33673443D01*
X181132493Y-33607754D01*
X181132491Y-33607753D01*
X181132490Y-33607753D01*
X180971207Y-33582208D01*
X180922537Y-33574500D01*
X180709963Y-33574500D01*
X180681256Y-33579046D01*
X180500007Y-33607753D01*
X180457723Y-33621492D01*
X180387882Y-33623486D01*
X180331726Y-33591241D01*
X180153840Y-33413355D01*
X180153838Y-33413352D01*
X180034967Y-33294481D01*
X180034966Y-33294480D01*
X179948154Y-33244360D01*
X179948154Y-33244359D01*
X179948150Y-33244358D01*
X179898035Y-33215423D01*
X179745307Y-33174499D01*
X179587193Y-33174499D01*
X179579597Y-33174499D01*
X179579581Y-33174500D01*
X167726574Y-33174500D01*
X167726558Y-33174499D01*
X167718962Y-33174499D01*
X167560847Y-33174499D01*
X167484483Y-33194961D01*
X167408118Y-33215423D01*
X167408113Y-33215426D01*
X167271194Y-33294475D01*
X167271186Y-33294481D01*
X166485731Y-34079936D01*
X166485730Y-34079938D01*
X166448908Y-34143716D01*
X166406673Y-34216869D01*
X166365749Y-34369597D01*
X166365749Y-34369599D01*
X166365749Y-34437693D01*
X166346064Y-34504732D01*
X166329430Y-34525374D01*
X166059212Y-34795591D01*
X166042175Y-34732007D01*
X165976349Y-34617993D01*
X165883257Y-34524901D01*
X165769243Y-34459075D01*
X165705659Y-34442037D01*
X166337966Y-33809728D01*
X166283800Y-33770375D01*
X166094467Y-33673904D01*
X165892379Y-33608242D01*
X165682496Y-33575000D01*
X165470004Y-33575000D01*
X165260122Y-33608242D01*
X165260119Y-33608242D01*
X165058032Y-33673904D01*
X164868689Y-33770380D01*
X164814532Y-33809727D01*
X164814532Y-33809728D01*
X165446841Y-34442037D01*
X165383257Y-34459075D01*
X165269243Y-34524901D01*
X165176151Y-34617993D01*
X165110325Y-34732007D01*
X165093287Y-34795591D01*
X164460978Y-34163282D01*
X164460977Y-34163282D01*
X164421630Y-34217439D01*
X164325154Y-34406782D01*
X164259492Y-34608869D01*
X164259492Y-34608872D01*
X164226250Y-34818753D01*
X164226250Y-35031246D01*
X164259492Y-35241127D01*
X164259492Y-35241130D01*
X164325154Y-35443217D01*
X164421625Y-35632550D01*
X164460978Y-35686716D01*
X165093287Y-35054408D01*
X165110325Y-35117993D01*
X165176151Y-35232007D01*
X165269243Y-35325099D01*
X165383257Y-35390925D01*
X165446840Y-35407962D01*
X164814532Y-36040269D01*
X164814532Y-36040270D01*
X164868699Y-36079624D01*
X165058032Y-36176095D01*
X165260120Y-36241757D01*
X165470004Y-36275000D01*
X165682496Y-36275000D01*
X165892377Y-36241757D01*
X165892380Y-36241757D01*
X166094469Y-36176094D01*
X166185454Y-36129735D01*
X166254123Y-36116838D01*
X166318864Y-36143114D01*
X166359121Y-36200220D01*
X166365750Y-36240219D01*
X166365750Y-38632402D01*
X166346065Y-38699441D01*
X166329431Y-38720083D01*
X165068592Y-39980921D01*
X165007269Y-40014406D01*
X164942598Y-40011173D01*
X164928284Y-40006522D01*
X164753745Y-39978878D01*
X164726102Y-39974500D01*
X164521398Y-39974500D01*
X164497079Y-39978351D01*
X164319215Y-40006522D01*
X164124526Y-40069781D01*
X163942136Y-40162715D01*
X163776536Y-40283028D01*
X163631778Y-40427786D01*
X163511465Y-40593386D01*
X163418531Y-40775776D01*
X163355272Y-40970465D01*
X163323250Y-41172648D01*
X163323250Y-41377351D01*
X163355273Y-41579535D01*
X163359922Y-41593845D01*
X163361915Y-41663687D01*
X163329671Y-41719841D01*
X160456286Y-44593228D01*
X160344481Y-44705032D01*
X160344479Y-44705035D01*
X160294361Y-44791844D01*
X160294359Y-44791846D01*
X160265425Y-44841959D01*
X160265424Y-44841960D01*
X160265423Y-44841965D01*
X160224499Y-44994693D01*
X160224499Y-44994695D01*
X160224499Y-45162796D01*
X160224500Y-45162809D01*
X160224500Y-53250500D01*
X160204815Y-53317539D01*
X160152011Y-53363294D01*
X160100500Y-53374500D01*
X158738176Y-53374500D01*
X158738160Y-53374499D01*
X158730564Y-53374499D01*
X158572449Y-53374499D01*
X158496085Y-53394961D01*
X158419720Y-53415423D01*
X158419715Y-53415426D01*
X158282796Y-53494475D01*
X158282788Y-53494481D01*
X154665361Y-57111909D01*
X154604038Y-57145394D01*
X154534346Y-57140410D01*
X154478413Y-57098538D01*
X154453996Y-57033074D01*
X154459751Y-56985903D01*
X154462227Y-56978283D01*
X154494250Y-56776101D01*
X154494250Y-56571398D01*
X154462227Y-56369215D01*
X154398968Y-56174526D01*
X154363494Y-56104906D01*
X154306037Y-55992140D01*
X154279476Y-55955581D01*
X154185721Y-55826536D01*
X154040963Y-55681778D01*
X153875360Y-55561462D01*
X153861950Y-55554629D01*
X153811156Y-55506653D01*
X153794250Y-55444147D01*
X153794250Y-40781346D01*
X153813935Y-40714307D01*
X153830564Y-40693670D01*
X158212416Y-36311817D01*
X158273739Y-36278333D01*
X158300097Y-36275499D01*
X158854121Y-36275499D01*
X158854122Y-36275499D01*
X158913733Y-36269091D01*
X159048581Y-36218796D01*
X159163796Y-36132546D01*
X159250046Y-36017331D01*
X159300341Y-35882483D01*
X159306750Y-35822873D01*
X159306749Y-34027128D01*
X159300341Y-33967517D01*
X159263867Y-33869726D01*
X159250048Y-33832673D01*
X159250043Y-33832664D01*
X159163797Y-33717455D01*
X159163794Y-33717452D01*
X159048585Y-33631206D01*
X159048578Y-33631202D01*
X158913732Y-33580908D01*
X158913733Y-33580908D01*
X158854133Y-33574501D01*
X158854131Y-33574500D01*
X158854123Y-33574500D01*
X158854114Y-33574500D01*
X157058379Y-33574500D01*
X157058373Y-33574501D01*
X156998766Y-33580908D01*
X156863921Y-33631202D01*
X156863914Y-33631206D01*
X156748705Y-33717452D01*
X156748702Y-33717455D01*
X156662456Y-33832664D01*
X156662452Y-33832671D01*
X156612158Y-33967517D01*
X156605751Y-34027116D01*
X156605751Y-34027123D01*
X156605750Y-34027135D01*
X156605750Y-34037690D01*
X156586065Y-34104729D01*
X156569431Y-34125371D01*
X155899212Y-34795590D01*
X155882175Y-34732007D01*
X155816349Y-34617993D01*
X155723257Y-34524901D01*
X155609243Y-34459075D01*
X155545659Y-34442037D01*
X156177966Y-33809728D01*
X156123800Y-33770375D01*
X155934467Y-33673904D01*
X155732379Y-33608242D01*
X155522496Y-33575000D01*
X155310004Y-33575000D01*
X155100122Y-33608242D01*
X155100119Y-33608242D01*
X154898032Y-33673904D01*
X154708689Y-33770380D01*
X154654532Y-33809727D01*
X154654532Y-33809728D01*
X155286841Y-34442037D01*
X155223257Y-34459075D01*
X155109243Y-34524901D01*
X155016151Y-34617993D01*
X154950325Y-34732007D01*
X154933287Y-34795591D01*
X154300978Y-34163282D01*
X154300977Y-34163282D01*
X154261630Y-34217439D01*
X154165154Y-34406782D01*
X154099492Y-34608869D01*
X154099492Y-34608872D01*
X154066250Y-34818753D01*
X154066250Y-35031246D01*
X154099492Y-35241127D01*
X154099492Y-35241130D01*
X154165154Y-35443217D01*
X154261625Y-35632550D01*
X154300978Y-35686716D01*
X154933287Y-35054408D01*
X154950325Y-35117993D01*
X155016151Y-35232007D01*
X155109243Y-35325099D01*
X155223257Y-35390925D01*
X155286840Y-35407962D01*
X154654532Y-36040269D01*
X154654532Y-36040270D01*
X154708699Y-36079624D01*
X154898032Y-36176095D01*
X155100120Y-36241757D01*
X155310004Y-36275000D01*
X155522496Y-36275000D01*
X155732377Y-36241757D01*
X155732380Y-36241757D01*
X155934467Y-36176095D01*
X156123804Y-36079622D01*
X156177966Y-36040270D01*
X156177967Y-36040270D01*
X155545658Y-35407962D01*
X155609243Y-35390925D01*
X155723257Y-35325099D01*
X155816349Y-35232007D01*
X155882175Y-35117993D01*
X155899212Y-35054409D01*
X156569431Y-35724628D01*
X156602916Y-35785951D01*
X156605750Y-35812300D01*
X156605750Y-35822865D01*
X156605751Y-35822876D01*
X156612158Y-35882483D01*
X156662452Y-36017327D01*
X156666702Y-36025109D01*
X156664792Y-36026151D01*
X156684976Y-36080260D01*
X156670126Y-36148533D01*
X156648973Y-36176790D01*
X152825036Y-40000728D01*
X152713231Y-40112532D01*
X152713229Y-40112535D01*
X152665316Y-40195524D01*
X152663110Y-40199345D01*
X152634173Y-40249465D01*
X152632919Y-40254144D01*
X152626835Y-40265178D01*
X152606732Y-40285114D01*
X152588972Y-40307155D01*
X152582253Y-40309391D01*
X152577225Y-40314378D01*
X152549538Y-40320280D01*
X152522678Y-40329221D01*
X152515815Y-40327469D01*
X152508891Y-40328946D01*
X152482409Y-40318943D01*
X152454979Y-40311943D01*
X152450153Y-40306760D01*
X152443528Y-40304258D01*
X152426656Y-40281523D01*
X152407367Y-40260807D01*
X152405538Y-40253068D01*
X152401889Y-40248151D01*
X152400897Y-40233430D01*
X152394250Y-40205300D01*
X152394250Y-39011560D01*
X152394251Y-39011547D01*
X152394251Y-38843444D01*
X152361196Y-38720083D01*
X152353327Y-38690716D01*
X152319660Y-38632402D01*
X152274274Y-38553790D01*
X152274268Y-38553782D01*
X149183068Y-35462582D01*
X149149583Y-35401259D01*
X149146749Y-35374901D01*
X149146749Y-34027129D01*
X149146748Y-34027123D01*
X149146747Y-34027116D01*
X149140341Y-33967517D01*
X149103867Y-33869726D01*
X149090048Y-33832673D01*
X149090043Y-33832664D01*
X149003797Y-33717455D01*
X149003794Y-33717452D01*
X148888585Y-33631206D01*
X148888578Y-33631202D01*
X148753732Y-33580908D01*
X148753733Y-33580908D01*
X148694133Y-33574501D01*
X148694131Y-33574500D01*
X148694123Y-33574500D01*
X148694114Y-33574500D01*
X146898379Y-33574500D01*
X146898373Y-33574501D01*
X146838766Y-33580908D01*
X146703921Y-33631202D01*
X146703914Y-33631206D01*
X146588705Y-33717452D01*
X146588702Y-33717455D01*
X146502456Y-33832664D01*
X146502452Y-33832671D01*
X146452158Y-33967517D01*
X146445751Y-34027116D01*
X146445751Y-34027123D01*
X146445750Y-34027135D01*
X146445750Y-34037690D01*
X146426065Y-34104729D01*
X146409431Y-34125371D01*
X145739212Y-34795590D01*
X145722175Y-34732007D01*
X145656349Y-34617993D01*
X145563257Y-34524901D01*
X145449243Y-34459075D01*
X145385659Y-34442037D01*
X146017966Y-33809728D01*
X145963800Y-33770375D01*
X145774467Y-33673904D01*
X145572379Y-33608242D01*
X145362496Y-33575000D01*
X145150004Y-33575000D01*
X144940122Y-33608242D01*
X144940119Y-33608242D01*
X144738032Y-33673904D01*
X144548689Y-33770380D01*
X144494532Y-33809727D01*
X144494532Y-33809728D01*
X145126841Y-34442037D01*
X145063257Y-34459075D01*
X144949243Y-34524901D01*
X144856151Y-34617993D01*
X144790325Y-34732007D01*
X144773287Y-34795591D01*
X144140978Y-34163282D01*
X144140977Y-34163282D01*
X144101630Y-34217439D01*
X144005154Y-34406782D01*
X143939492Y-34608869D01*
X143939492Y-34608872D01*
X143906250Y-34818753D01*
X143906250Y-35031246D01*
X143939492Y-35241127D01*
X143939492Y-35241130D01*
X144005154Y-35443217D01*
X144101625Y-35632550D01*
X144140978Y-35686716D01*
X144773287Y-35054408D01*
X144790325Y-35117993D01*
X144856151Y-35232007D01*
X144949243Y-35325099D01*
X145063257Y-35390925D01*
X145126840Y-35407962D01*
X144494532Y-36040269D01*
X144494532Y-36040270D01*
X144548699Y-36079624D01*
X144738032Y-36176095D01*
X144940120Y-36241757D01*
X145150004Y-36275000D01*
X145362496Y-36275000D01*
X145572377Y-36241757D01*
X145572380Y-36241757D01*
X145774467Y-36176095D01*
X145963804Y-36079622D01*
X146017966Y-36040270D01*
X146017967Y-36040270D01*
X145385658Y-35407962D01*
X145449243Y-35390925D01*
X145563257Y-35325099D01*
X145656349Y-35232007D01*
X145722175Y-35117993D01*
X145739212Y-35054409D01*
X146409431Y-35724628D01*
X146442916Y-35785951D01*
X146445750Y-35812300D01*
X146445750Y-35822865D01*
X146445751Y-35822876D01*
X146452158Y-35882483D01*
X146502452Y-36017328D01*
X146502456Y-36017335D01*
X146588702Y-36132544D01*
X146588705Y-36132547D01*
X146703914Y-36218793D01*
X146703921Y-36218797D01*
X146838767Y-36269091D01*
X146838766Y-36269091D01*
X146845694Y-36269835D01*
X146898377Y-36275500D01*
X148246151Y-36275499D01*
X148313190Y-36295184D01*
X148333832Y-36311818D01*
X151156931Y-39134916D01*
X151190416Y-39196239D01*
X151193250Y-39222597D01*
X151193250Y-55249250D01*
X151173565Y-55316289D01*
X151120761Y-55362044D01*
X151069250Y-55373250D01*
X150093748Y-55373250D01*
X150093730Y-55373251D01*
X149990953Y-55383750D01*
X149990950Y-55383751D01*
X149824418Y-55438935D01*
X149824413Y-55438937D01*
X149675092Y-55531039D01*
X149551039Y-55655092D01*
X149458937Y-55804413D01*
X149458936Y-55804416D01*
X149403751Y-55970953D01*
X149403751Y-55970954D01*
X149403750Y-55970954D01*
X149393250Y-56073733D01*
X149393250Y-57273751D01*
X149393251Y-57273768D01*
X149403750Y-57376546D01*
X149403751Y-57376549D01*
X149458935Y-57543081D01*
X149458936Y-57543084D01*
X149551038Y-57692406D01*
X149675094Y-57816462D01*
X149824416Y-57908564D01*
X149990953Y-57963749D01*
X150093741Y-57974250D01*
X151293758Y-57974249D01*
X151396547Y-57963749D01*
X151563084Y-57908564D01*
X151712406Y-57816462D01*
X151734315Y-57794552D01*
X151795635Y-57761066D01*
X151865327Y-57766048D01*
X151909679Y-57794550D01*
X152369399Y-58254270D01*
X152506330Y-58333327D01*
X152659058Y-58374251D01*
X152659061Y-58374251D01*
X152824769Y-58374251D01*
X152824785Y-58374250D01*
X154766087Y-58374250D01*
X154766103Y-58374251D01*
X154773699Y-58374251D01*
X154931810Y-58374251D01*
X154931813Y-58374251D01*
X155084541Y-58333327D01*
X155134660Y-58304389D01*
X155221472Y-58254270D01*
X155333276Y-58142466D01*
X155333276Y-58142464D01*
X155343484Y-58132257D01*
X155343485Y-58132254D01*
X157912821Y-55562919D01*
X157974142Y-55529436D01*
X158043834Y-55534420D01*
X158099767Y-55576292D01*
X158124184Y-55641756D01*
X158124500Y-55650599D01*
X158124500Y-55686249D01*
X158124501Y-55686269D01*
X158135000Y-55789046D01*
X158135001Y-55789049D01*
X158190185Y-55955581D01*
X158190187Y-55955586D01*
X158199666Y-55970954D01*
X158282288Y-56104906D01*
X158406344Y-56228962D01*
X158555666Y-56321064D01*
X158722203Y-56376249D01*
X158824991Y-56386750D01*
X160025008Y-56386749D01*
X160087899Y-56380324D01*
X160156590Y-56393093D01*
X160207475Y-56440973D01*
X160224500Y-56503682D01*
X160224500Y-66440830D01*
X160224499Y-66440848D01*
X160224499Y-66606554D01*
X160224498Y-66606554D01*
X160262102Y-66746894D01*
X160265423Y-66759285D01*
X160291085Y-66803732D01*
X160336487Y-66882371D01*
X160344479Y-66896214D01*
X160344481Y-66896217D01*
X160463349Y-67015085D01*
X160463355Y-67015090D01*
X160630922Y-67182657D01*
X160664407Y-67243980D01*
X160661173Y-67308655D01*
X160656522Y-67322968D01*
X160624500Y-67525148D01*
X160624500Y-67729851D01*
X160656522Y-67932034D01*
X160719781Y-68126723D01*
X160771035Y-68227312D01*
X160799153Y-68282498D01*
X160812715Y-68309113D01*
X160933028Y-68474713D01*
X161077786Y-68619471D01*
X161232749Y-68732056D01*
X161243390Y-68739787D01*
X161334840Y-68786383D01*
X161336080Y-68787015D01*
X161386876Y-68834990D01*
X161403671Y-68902811D01*
X161381134Y-68968946D01*
X161336080Y-69007985D01*
X161243386Y-69055215D01*
X161077786Y-69175528D01*
X160933028Y-69320286D01*
X160812715Y-69485886D01*
X160719781Y-69668276D01*
X160656522Y-69862965D01*
X160624500Y-70065148D01*
X160624500Y-70258403D01*
X160604815Y-70325442D01*
X160552011Y-70371197D01*
X160482853Y-70381141D01*
X160419297Y-70352116D01*
X160412819Y-70346084D01*
X155599077Y-65532342D01*
X155565592Y-65471019D01*
X155568828Y-65406341D01*
X155573477Y-65392034D01*
X155605500Y-65189852D01*
X155605500Y-64985148D01*
X155576012Y-64798969D01*
X155573477Y-64782965D01*
X155544127Y-64692637D01*
X155510220Y-64588281D01*
X155510218Y-64588278D01*
X155510218Y-64588276D01*
X155476503Y-64522107D01*
X155417287Y-64405890D01*
X155408002Y-64393110D01*
X155296971Y-64240286D01*
X155152219Y-64095534D01*
X155152211Y-64095528D01*
X155058547Y-64027478D01*
X155015882Y-63972149D01*
X155009903Y-63902536D01*
X155042508Y-63840740D01*
X155092426Y-63809455D01*
X155174334Y-63782314D01*
X155323656Y-63690212D01*
X155447712Y-63566156D01*
X155539814Y-63416834D01*
X155594999Y-63250297D01*
X155605500Y-63147509D01*
X155605499Y-61947492D01*
X155594999Y-61844703D01*
X155539814Y-61678166D01*
X155447712Y-61528844D01*
X155323656Y-61404788D01*
X155174334Y-61312686D01*
X155007797Y-61257501D01*
X155007795Y-61257500D01*
X154905010Y-61247000D01*
X153704998Y-61247000D01*
X153704981Y-61247001D01*
X153602203Y-61257500D01*
X153602200Y-61257501D01*
X153435668Y-61312685D01*
X153435663Y-61312687D01*
X153286342Y-61404789D01*
X153162289Y-61528842D01*
X153070187Y-61678163D01*
X153070185Y-61678168D01*
X153067062Y-61687594D01*
X153015001Y-61844703D01*
X153015001Y-61844704D01*
X153015000Y-61844704D01*
X153004500Y-61947483D01*
X153004500Y-63147501D01*
X153004501Y-63147518D01*
X153015000Y-63250296D01*
X153015001Y-63250299D01*
X153041667Y-63330771D01*
X153070186Y-63416834D01*
X153162288Y-63566156D01*
X153286344Y-63690212D01*
X153435666Y-63782314D01*
X153517570Y-63809454D01*
X153575015Y-63849227D01*
X153601838Y-63913743D01*
X153589523Y-63982518D01*
X153551451Y-64027478D01*
X153457787Y-64095528D01*
X153457782Y-64095532D01*
X153313028Y-64240286D01*
X153192715Y-64405885D01*
X153185883Y-64419295D01*
X153137909Y-64470091D01*
X153075398Y-64487000D01*
X143175097Y-64487000D01*
X143108058Y-64467315D01*
X143087416Y-64450681D01*
X128801896Y-50165161D01*
X128768411Y-50103838D01*
X128773395Y-50034146D01*
X128801896Y-49989799D01*
X128820617Y-49971078D01*
X128915481Y-49876214D01*
X129032287Y-49715444D01*
X129112015Y-49558968D01*
X129159990Y-49508173D01*
X129227811Y-49491378D01*
X129293946Y-49513915D01*
X129332984Y-49558968D01*
X129412713Y-49715444D01*
X129529519Y-49876214D01*
X129670036Y-50016731D01*
X129830806Y-50133537D01*
X129917649Y-50177785D01*
X130007867Y-50223755D01*
X130007870Y-50223756D01*
X130102366Y-50254459D01*
X130196864Y-50285163D01*
X130393139Y-50316250D01*
X130393140Y-50316250D01*
X130591860Y-50316250D01*
X130591861Y-50316250D01*
X130788136Y-50285163D01*
X130977132Y-50223755D01*
X131154194Y-50133537D01*
X131314964Y-50016731D01*
X131455481Y-49876214D01*
X131572287Y-49715444D01*
X131652015Y-49558968D01*
X131699990Y-49508173D01*
X131767811Y-49491378D01*
X131833946Y-49513915D01*
X131872984Y-49558968D01*
X131952713Y-49715444D01*
X132069519Y-49876214D01*
X132210036Y-50016731D01*
X132370806Y-50133537D01*
X132457649Y-50177785D01*
X132547867Y-50223755D01*
X132547870Y-50223756D01*
X132642366Y-50254459D01*
X132736864Y-50285163D01*
X132933139Y-50316250D01*
X132933140Y-50316250D01*
X133131860Y-50316250D01*
X133131861Y-50316250D01*
X133328136Y-50285163D01*
X133517132Y-50223755D01*
X133694194Y-50133537D01*
X133854964Y-50016731D01*
X133995481Y-49876214D01*
X134112287Y-49715444D01*
X134192015Y-49558968D01*
X134239990Y-49508173D01*
X134307811Y-49491378D01*
X134373946Y-49513915D01*
X134412984Y-49558968D01*
X134492713Y-49715444D01*
X134609519Y-49876214D01*
X134750036Y-50016731D01*
X134910806Y-50133537D01*
X134997649Y-50177785D01*
X135087867Y-50223755D01*
X135087870Y-50223756D01*
X135182366Y-50254459D01*
X135276864Y-50285163D01*
X135473139Y-50316250D01*
X135473140Y-50316250D01*
X135671860Y-50316250D01*
X135671861Y-50316250D01*
X135868136Y-50285163D01*
X136057132Y-50223755D01*
X136234194Y-50133537D01*
X136394964Y-50016731D01*
X136535481Y-49876214D01*
X136652287Y-49715444D01*
X136666557Y-49687436D01*
X136686438Y-49666385D01*
X136704113Y-49643444D01*
X136710136Y-49641291D01*
X136714528Y-49636642D01*
X136742635Y-49629680D01*
X136769910Y-49619936D01*
X136778447Y-49620811D01*
X136782348Y-49619845D01*
X136805075Y-49622942D01*
X136807120Y-49623416D01*
X136922192Y-49654250D01*
X136922193Y-49654250D01*
X136939969Y-49654250D01*
X136953804Y-49657461D01*
X136972363Y-49667931D01*
X136992809Y-49673935D01*
X137004897Y-49686285D01*
X137014658Y-49691792D01*
X137019781Y-49701492D01*
X137029691Y-49711616D01*
X137029849Y-49711502D01*
X137030627Y-49712573D01*
X137031500Y-49713465D01*
X137032710Y-49715440D01*
X137032713Y-49715444D01*
X137149519Y-49876214D01*
X137290036Y-50016731D01*
X137450806Y-50133537D01*
X137537649Y-50177785D01*
X137627867Y-50223755D01*
X137627870Y-50223756D01*
X137722366Y-50254459D01*
X137816864Y-50285163D01*
X138013139Y-50316250D01*
X138013140Y-50316250D01*
X138211860Y-50316250D01*
X138211861Y-50316250D01*
X138408136Y-50285163D01*
X138597132Y-50223755D01*
X138774194Y-50133537D01*
X138934964Y-50016731D01*
X139075481Y-49876214D01*
X139192287Y-49715444D01*
X139282505Y-49538382D01*
X139343913Y-49349386D01*
X139375000Y-49153111D01*
X139375000Y-48954389D01*
X139343913Y-48758114D01*
X139282505Y-48569118D01*
X139282505Y-48569117D01*
X139236535Y-48478899D01*
X139192287Y-48392056D01*
X139075481Y-48231286D01*
X138934964Y-48090769D01*
X138774194Y-47973963D01*
X138597132Y-47883744D01*
X138597129Y-47883743D01*
X138408137Y-47822337D01*
X138309998Y-47806793D01*
X138211861Y-47791250D01*
X138013139Y-47791250D01*
X137947714Y-47801612D01*
X137816862Y-47822337D01*
X137627870Y-47883743D01*
X137627867Y-47883744D01*
X137450802Y-47973965D01*
X137322385Y-48067265D01*
X137256579Y-48090745D01*
X137188525Y-48074919D01*
X137139830Y-48024813D01*
X137125500Y-47966947D01*
X137125500Y-36399499D01*
X137145185Y-36332460D01*
X137197989Y-36286705D01*
X137249500Y-36275499D01*
X137422871Y-36275499D01*
X137422872Y-36275499D01*
X137482483Y-36269091D01*
X137617331Y-36218796D01*
X137732546Y-36132546D01*
X137818796Y-36017331D01*
X137869091Y-35882483D01*
X137875500Y-35822873D01*
X137875499Y-34027128D01*
X137869091Y-33967517D01*
X137832617Y-33869726D01*
X137818798Y-33832673D01*
X137818793Y-33832664D01*
X137732547Y-33717455D01*
X137732544Y-33717452D01*
X137617335Y-33631206D01*
X137617328Y-33631202D01*
X137482482Y-33580908D01*
X137482483Y-33580908D01*
X137422883Y-33574501D01*
X137422881Y-33574500D01*
X137422873Y-33574500D01*
X137422864Y-33574500D01*
X135627129Y-33574500D01*
X135627123Y-33574501D01*
X135567516Y-33580908D01*
X135432671Y-33631202D01*
X135432664Y-33631206D01*
X135317455Y-33717452D01*
X135317452Y-33717455D01*
X135231206Y-33832664D01*
X135231202Y-33832671D01*
X135180908Y-33967517D01*
X135174501Y-34027116D01*
X135174501Y-34027123D01*
X135174500Y-34027135D01*
X135174500Y-34037690D01*
X135154815Y-34104729D01*
X135138181Y-34125371D01*
X134467962Y-34795590D01*
X134450925Y-34732007D01*
X134385099Y-34617993D01*
X134292007Y-34524901D01*
X134177993Y-34459075D01*
X134114409Y-34442037D01*
X134746716Y-33809728D01*
X134692550Y-33770375D01*
X134503217Y-33673904D01*
X134301129Y-33608242D01*
X134091246Y-33575000D01*
X133878754Y-33575000D01*
X133668872Y-33608242D01*
X133668869Y-33608242D01*
X133466782Y-33673904D01*
X133277439Y-33770380D01*
X133223282Y-33809727D01*
X133223282Y-33809728D01*
X133855591Y-34442037D01*
X133792007Y-34459075D01*
X133677993Y-34524901D01*
X133584901Y-34617993D01*
X133519075Y-34732007D01*
X133502037Y-34795591D01*
X132869728Y-34163282D01*
X132869727Y-34163282D01*
X132830380Y-34217439D01*
X132733904Y-34406782D01*
X132668242Y-34608869D01*
X132668242Y-34608872D01*
X132635000Y-34818753D01*
X132635000Y-35031246D01*
X132668242Y-35241127D01*
X132668242Y-35241130D01*
X132733904Y-35443217D01*
X132830375Y-35632550D01*
X132869728Y-35686716D01*
X133502037Y-35054408D01*
X133519075Y-35117993D01*
X133584901Y-35232007D01*
X133677993Y-35325099D01*
X133792007Y-35390925D01*
X133855590Y-35407962D01*
X133223282Y-36040269D01*
X133223282Y-36040270D01*
X133277449Y-36079624D01*
X133466782Y-36176095D01*
X133668870Y-36241757D01*
X133878754Y-36275000D01*
X134091246Y-36275000D01*
X134301127Y-36241757D01*
X134301130Y-36241757D01*
X134503217Y-36176095D01*
X134692554Y-36079622D01*
X134746716Y-36040270D01*
X134746717Y-36040270D01*
X134114408Y-35407962D01*
X134177993Y-35390925D01*
X134292007Y-35325099D01*
X134385099Y-35232007D01*
X134450925Y-35117993D01*
X134467962Y-35054409D01*
X135138181Y-35724628D01*
X135171666Y-35785951D01*
X135174500Y-35812300D01*
X135174500Y-35822865D01*
X135174501Y-35822876D01*
X135180908Y-35882483D01*
X135231202Y-36017328D01*
X135231206Y-36017335D01*
X135317452Y-36132544D01*
X135317455Y-36132547D01*
X135432664Y-36218793D01*
X135432671Y-36218797D01*
X135433741Y-36219196D01*
X135567517Y-36269091D01*
X135627127Y-36275500D01*
X135800500Y-36275499D01*
X135867539Y-36295183D01*
X135913294Y-36347987D01*
X135924500Y-36399499D01*
X135924500Y-47686079D01*
X135904815Y-47753118D01*
X135852011Y-47798873D01*
X135782853Y-47808817D01*
X135781102Y-47808552D01*
X135732498Y-47800854D01*
X135671861Y-47791250D01*
X135473139Y-47791250D01*
X135407714Y-47801612D01*
X135276862Y-47822337D01*
X135087870Y-47883743D01*
X135087867Y-47883744D01*
X134910805Y-47973963D01*
X134750033Y-48090771D01*
X134609521Y-48231283D01*
X134492713Y-48392055D01*
X134412985Y-48548530D01*
X134365010Y-48599326D01*
X134297189Y-48616121D01*
X134231054Y-48593583D01*
X134192015Y-48548530D01*
X134172679Y-48510582D01*
X134112287Y-48392056D01*
X133995481Y-48231286D01*
X133854964Y-48090769D01*
X133694194Y-47973963D01*
X133517132Y-47883744D01*
X133517129Y-47883743D01*
X133328137Y-47822337D01*
X133229998Y-47806793D01*
X133131861Y-47791250D01*
X132933139Y-47791250D01*
X132867714Y-47801612D01*
X132736862Y-47822337D01*
X132547870Y-47883743D01*
X132547867Y-47883744D01*
X132370805Y-47973963D01*
X132210033Y-48090771D01*
X132069521Y-48231283D01*
X131952713Y-48392055D01*
X131872985Y-48548530D01*
X131825010Y-48599326D01*
X131757189Y-48616121D01*
X131691054Y-48593583D01*
X131652015Y-48548530D01*
X131632679Y-48510582D01*
X131572287Y-48392056D01*
X131455481Y-48231286D01*
X131314964Y-48090769D01*
X131154194Y-47973963D01*
X130977132Y-47883744D01*
X130977129Y-47883743D01*
X130788137Y-47822337D01*
X130689998Y-47806793D01*
X130591861Y-47791250D01*
X130393139Y-47791250D01*
X130327714Y-47801612D01*
X130196862Y-47822337D01*
X130007870Y-47883743D01*
X130007867Y-47883744D01*
X129830805Y-47973963D01*
X129670033Y-48090771D01*
X129529521Y-48231283D01*
X129412713Y-48392055D01*
X129332985Y-48548530D01*
X129285010Y-48599326D01*
X129217189Y-48616121D01*
X129151054Y-48593583D01*
X129112015Y-48548530D01*
X129092679Y-48510582D01*
X129032287Y-48392056D01*
X128915481Y-48231286D01*
X128774964Y-48090769D01*
X128614194Y-47973963D01*
X128437132Y-47883744D01*
X128437129Y-47883743D01*
X128248137Y-47822337D01*
X128149998Y-47806793D01*
X128051861Y-47791250D01*
X127853139Y-47791250D01*
X127787714Y-47801612D01*
X127656862Y-47822337D01*
X127467870Y-47883743D01*
X127467867Y-47883744D01*
X127290805Y-47973963D01*
X127130033Y-48090771D01*
X126989521Y-48231283D01*
X126872713Y-48392055D01*
X126792704Y-48549081D01*
X126744729Y-48599877D01*
X126676908Y-48616672D01*
X126610773Y-48594134D01*
X126571734Y-48549081D01*
X126491858Y-48392317D01*
X126464768Y-48355033D01*
X125850147Y-48969654D01*
X125826708Y-48882179D01*
X125768189Y-48780820D01*
X125685430Y-48698061D01*
X125584071Y-48639542D01*
X125496594Y-48616102D01*
X126111216Y-48001481D01*
X126111215Y-48001480D01*
X126073932Y-47974391D01*
X125896937Y-47884207D01*
X125708022Y-47822825D01*
X125511821Y-47791750D01*
X125313179Y-47791750D01*
X125116979Y-47822825D01*
X125116976Y-47822825D01*
X124928062Y-47884207D01*
X124751064Y-47974393D01*
X124713783Y-48001479D01*
X124713782Y-48001480D01*
X125328406Y-48616102D01*
X125240929Y-48639542D01*
X125139570Y-48698061D01*
X125056811Y-48780820D01*
X124998292Y-48882179D01*
X124974852Y-48969655D01*
X124360230Y-48355032D01*
X124360229Y-48355033D01*
X124333141Y-48392316D01*
X124253264Y-48549082D01*
X124205290Y-48599877D01*
X124137469Y-48616672D01*
X124071334Y-48594134D01*
X124032296Y-48549082D01*
X123952287Y-48392056D01*
X123835481Y-48231286D01*
X123694964Y-48090769D01*
X123534194Y-47973963D01*
X123357132Y-47883744D01*
X123357129Y-47883743D01*
X123168137Y-47822337D01*
X123069998Y-47806793D01*
X122971861Y-47791250D01*
X122773139Y-47791250D01*
X122707714Y-47801612D01*
X122576862Y-47822337D01*
X122387870Y-47883743D01*
X122387867Y-47883744D01*
X122210805Y-47973963D01*
X122050033Y-48090771D01*
X121909521Y-48231283D01*
X121792713Y-48392055D01*
X121702494Y-48569117D01*
X121702493Y-48569120D01*
X121641087Y-48758112D01*
X121610000Y-48954389D01*
X118769250Y-48954389D01*
X118769250Y-36386538D01*
X121430750Y-36386538D01*
X121430750Y-36638461D01*
X121470160Y-36887285D01*
X121548010Y-37126883D01*
X121662382Y-37351348D01*
X121810451Y-37555149D01*
X121810455Y-37555154D01*
X121988595Y-37733294D01*
X121988600Y-37733298D01*
X122166367Y-37862452D01*
X122192405Y-37881370D01*
X122335434Y-37954247D01*
X122416866Y-37995739D01*
X122416868Y-37995739D01*
X122416871Y-37995741D01*
X122656465Y-38073590D01*
X122905288Y-38113000D01*
X122905289Y-38113000D01*
X123157211Y-38113000D01*
X123157212Y-38113000D01*
X123406035Y-38073590D01*
X123645629Y-37995741D01*
X123870095Y-37881370D01*
X124073906Y-37733293D01*
X124252043Y-37555156D01*
X124400120Y-37351345D01*
X124514491Y-37126879D01*
X124592340Y-36887285D01*
X124631750Y-36638462D01*
X124631750Y-36386538D01*
X124605425Y-36220329D01*
X124592340Y-36137714D01*
X124557773Y-36031330D01*
X124514491Y-35898121D01*
X124400120Y-35673655D01*
X124370256Y-35632550D01*
X124252048Y-35469850D01*
X124252044Y-35469845D01*
X124073904Y-35291705D01*
X124073899Y-35291701D01*
X123870098Y-35143632D01*
X123870097Y-35143631D01*
X123870095Y-35143630D01*
X123787954Y-35101777D01*
X123645633Y-35029260D01*
X123406035Y-34951410D01*
X123310976Y-34936354D01*
X123239290Y-34925000D01*
X123157212Y-34912000D01*
X122905288Y-34912000D01*
X122823210Y-34925000D01*
X122656464Y-34951410D01*
X122416866Y-35029260D01*
X122192401Y-35143632D01*
X121988600Y-35291701D01*
X121988595Y-35291705D01*
X121810455Y-35469845D01*
X121810451Y-35469850D01*
X121662382Y-35673651D01*
X121548010Y-35898116D01*
X121470160Y-36137714D01*
X121430750Y-36386538D01*
X118769250Y-36386538D01*
X118769250Y-32756984D01*
X118770030Y-32743097D01*
X118780212Y-32652750D01*
X118786391Y-32625680D01*
X118814110Y-32546469D01*
X118826152Y-32521463D01*
X118870805Y-32450399D01*
X118888109Y-32428702D01*
X118947452Y-32369359D01*
X118969149Y-32352055D01*
X119040213Y-32307402D01*
X119065219Y-32295360D01*
X119144432Y-32267640D01*
X119171497Y-32261462D01*
X119261847Y-32251279D01*
X119275734Y-32250500D01*
X194990358Y-32250500D01*
X195049290Y-32250500D01*
X195063172Y-32251280D01*
G37*
%TD.AperFunction*%
%TD*%
M02*
