%TF.GenerationSoftware,KiCad,Pcbnew,10.0.4*%
%TF.CreationDate,2026-09-13T13:17:34-04:00*%
%TF.ProjectId,FM Radio,464d2052-6164-4696-9f2e-6b696361645f,rev?*%
%TF.SameCoordinates,Original*%
%TF.FileFunction,Soldermask,Top*%
%TF.FilePolarity,Negative*%
%FSLAX46Y46*%
G04 Gerber Fmt 4.6, Leading zero omitted, Abs format (unit mm)*
G04 Created by KiCad (PCBNEW 10.0.4) date 2026-09-13 13:17:34*
%MOMM*%
%LPD*%
G01*
G04 APERTURE LIST*
G04 Aperture macros list*
%AMRoundRect*
0 Rectangle with rounded corners*
0 $1 Rounding radius*
0 $2 $3 $4 $5 $6 $7 $8 $9 X,Y pos of 4 corners*
0 Add a 4 corners polygon primitive as box body*
4,1,4,$2,$3,$4,$5,$6,$7,$8,$9,$2,$3,0*
0 Add four circle primitives for the rounded corners*
1,1,$1+$1,$2,$3*
1,1,$1+$1,$4,$5*
1,1,$1+$1,$6,$7*
1,1,$1+$1,$8,$9*
0 Add four rect primitives between the rounded corners*
20,1,$1+$1,$2,$3,$4,$5,0*
20,1,$1+$1,$4,$5,$6,$7,0*
20,1,$1+$1,$6,$7,$8,$9,0*
20,1,$1+$1,$8,$9,$2,$3,0*%
G04 Aperture macros list end*
%ADD10C,1.600000*%
%ADD11RoundRect,0.250000X-0.550000X-0.550000X0.550000X-0.550000X0.550000X0.550000X-0.550000X0.550000X0*%
%ADD12O,1.800000X1.200000*%
%ADD13C,1.200000*%
%ADD14R,2.000000X1.200000*%
%ADD15RoundRect,0.152400X-0.609600X1.063600X-0.609600X-1.063600X0.609600X-1.063600X0.609600X1.063600X0*%
%ADD16C,1.524000*%
%ADD17RoundRect,0.152400X0.609600X-1.063600X0.609600X1.063600X-0.609600X1.063600X-0.609600X-1.063600X0*%
%ADD18R,1.700000X1.700000*%
%ADD19C,1.700000*%
%ADD20C,2.700000*%
G04 APERTURE END LIST*
D10*
%TO.C,U3*%
X161925000Y-62547500D03*
X161925000Y-65087500D03*
X161925000Y-67627500D03*
X161925000Y-70167500D03*
X154305000Y-70167500D03*
X154305000Y-67627500D03*
X154305000Y-65087500D03*
D11*
X154305000Y-62547500D03*
%TD*%
D10*
%TO.C,C5*%
X153193750Y-56673750D03*
D11*
X150693750Y-56673750D03*
%TD*%
D10*
%TO.C,C2*%
X168275000Y-62706250D03*
D11*
X165775000Y-62706250D03*
%TD*%
D10*
%TO.C,C3*%
X150172500Y-66992500D03*
D11*
X147672500Y-66992500D03*
%TD*%
D10*
%TO.C,C4*%
X161925000Y-55086250D03*
D11*
X159425000Y-55086250D03*
%TD*%
D10*
%TO.C,C1*%
X168393750Y-73025000D03*
D11*
X165893750Y-73025000D03*
%TD*%
D12*
%TO.C,CN1*%
X183031250Y-65862500D03*
X190031250Y-65862500D03*
X188031250Y-70662500D03*
D13*
X184031250Y-68262500D03*
X190031250Y-68262500D03*
%TD*%
D14*
%TO.C,U2*%
X177856250Y-50768750D03*
X177856250Y-52768750D03*
X177856250Y-54768750D03*
X177856250Y-56768750D03*
X177856250Y-58768750D03*
X188856250Y-58768750D03*
X188856250Y-56768750D03*
X188856250Y-54768750D03*
X188856250Y-52768750D03*
X188856250Y-50768750D03*
%TD*%
D15*
%TO.C,U1*%
X122872500Y-65128750D03*
D16*
X122872500Y-64293750D03*
D15*
X125412500Y-65128750D03*
D16*
X125412500Y-64293750D03*
D15*
X127952500Y-65128750D03*
D16*
X127952500Y-64293750D03*
D15*
X130492500Y-65128750D03*
D16*
X130492500Y-64293750D03*
D15*
X133032500Y-65128750D03*
D16*
X133032500Y-64293750D03*
D15*
X135572500Y-65128750D03*
D16*
X135572500Y-64293750D03*
D15*
X138112500Y-65128750D03*
D16*
X138112500Y-64293750D03*
X138112500Y-49053750D03*
D17*
X138112500Y-48218750D03*
D16*
X135572500Y-49053750D03*
D17*
X135572500Y-48218750D03*
D16*
X133032500Y-49053750D03*
D17*
X133032500Y-48218750D03*
D16*
X130492500Y-49053750D03*
D17*
X130492500Y-48218750D03*
D16*
X127952500Y-49053750D03*
D17*
X127952500Y-48218750D03*
D16*
X125412500Y-49053750D03*
D17*
X125412500Y-48218750D03*
D16*
X122872500Y-49053750D03*
D17*
X122872500Y-48218750D03*
%TD*%
D18*
%TO.C,SW1*%
X136525000Y-34925000D03*
D19*
X133985000Y-34925000D03*
%TD*%
D18*
%TO.C,RV2*%
X183356250Y-34925000D03*
D19*
X180816250Y-34925000D03*
X178276250Y-34925000D03*
%TD*%
D18*
%TO.C,RV1*%
X170656250Y-34925000D03*
D19*
X168116250Y-34925000D03*
X165576250Y-34925000D03*
%TD*%
D10*
%TO.C,R2*%
X177165000Y-41275000D03*
X184785000Y-41275000D03*
%TD*%
%TO.C,R1*%
X164623750Y-41275000D03*
X172243750Y-41275000D03*
%TD*%
D18*
%TO.C,J2*%
X157956250Y-34925000D03*
D19*
X155416250Y-34925000D03*
%TD*%
D18*
%TO.C,J1*%
X147796250Y-34925000D03*
D19*
X145256250Y-34925000D03*
%TD*%
D20*
%TO.C,H4*%
X191293750Y-79375000D03*
%TD*%
%TO.C,H3*%
X123031250Y-79375000D03*
%TD*%
%TO.C,H2*%
X191293750Y-36512500D03*
%TD*%
%TO.C,H1*%
X123031250Y-36512500D03*
%TD*%
M02*
