M48
; DRILL file KiCad 10.0.4 date 2026-09-13T13:17:54
; FORMAT={-:-/ absolute / metric / decimal}
; #@! TF.CreationDate,2026-09-13T13:17:54-04:00
; #@! TF.GenerationSoftware,Kicad,Pcbnew,10.0.4
; #@! TF.FileFunction,Plated,1,2,PTH
FMAT,2
METRIC
; #@! TA.AperFunction,Plated,PTH,ComponentDrill
T1C0.600
; #@! TA.AperFunction,Plated,PTH,ComponentDrill
T2C0.800
; #@! TA.AperFunction,Plated,PTH,ComponentDrill
T3C0.889
; #@! TA.AperFunction,Plated,PTH,ComponentDrill
T4C1.000
; #@! TA.AperFunction,Plated,PTH,ComponentDrill
T5C1.200
%
G90
G05
T2
X147.672Y-66.992
X150.172Y-66.992
X150.694Y-56.674
X153.194Y-56.674
X154.305Y-62.547
X154.305Y-65.087
X154.305Y-67.627
X154.305Y-70.167
X159.425Y-55.086
X161.925Y-55.086
X161.925Y-62.547
X161.925Y-65.087
X161.925Y-67.627
X161.925Y-70.167
X164.624Y-41.275
X165.775Y-62.706
X165.894Y-73.025
X168.275Y-62.706
X168.394Y-73.025
X172.244Y-41.275
X177.165Y-41.275
X184.785Y-41.275
T3
X122.872Y-49.054
X122.872Y-64.294
X125.412Y-49.054
X125.412Y-64.294
X127.953Y-49.054
X127.953Y-64.294
X130.493Y-49.054
X130.493Y-64.294
X133.032Y-49.054
X133.032Y-64.294
X135.572Y-49.054
X135.572Y-64.294
X138.112Y-49.054
X138.112Y-64.294
T4
X133.985Y-34.925
X136.525Y-34.925
X145.256Y-34.925
X147.796Y-34.925
X155.416Y-34.925
X157.956Y-34.925
X165.576Y-34.925
X168.116Y-34.925
X170.656Y-34.925
X178.276Y-34.925
X180.816Y-34.925
X183.356Y-34.925
T5
X184.031Y-68.263
X190.031Y-68.263
T1
G00X183.331Y-65.862
M15
G01X182.731Y-65.862
M16
G05
G00X188.331Y-70.662
M15
G01X187.731Y-70.662
M16
G05
G00X190.331Y-65.862
M15
G01X189.731Y-65.862
M16
G05
M30
